<?xml version="1.0" encoding="UTF-8" standalone="no"?>
<!-- Created with Inkscape (http://www.inkscape.org/) -->

<svg
   xmlns:dc="http://purl.org/dc/elements/1.1/"
   xmlns:cc="http://creativecommons.org/ns#"
   xmlns:rdf="http://www.w3.org/1999/02/22-rdf-syntax-ns#"
   xmlns:svg="http://www.w3.org/2000/svg"
   xmlns="http://www.w3.org/2000/svg"
   version="1.1"
   width="315.60001"
   height="103"
   id="svg2"
   xml:space="preserve"><metadata
     id="metadata8"><rdf:RDF><cc:Work
         rdf:about=""><dc:format>image/svg+xml</dc:format><dc:type
           rdf:resource="http://purl.org/dc/dcmitype/StillImage" /><dc:title></dc:title></cc:Work></rdf:RDF></metadata><defs
     id="defs6"><clipPath
       id="clipPath18"><path
         d="M 0,0 612,0 612,792 0,792 0,0 z"
         id="path20" /></clipPath><clipPath
       id="clipPath1846"><path
         d="m 57.382,302.744 493.94,0 0,353.021 -493.94,0 0,-353.021 z"
         id="path1848" /></clipPath><clipPath
       id="clipPath1858"><path
         d="M 0,0 612,0 612,792 0,792 0,0 z"
         id="path1860" /></clipPath></defs><g
     transform="matrix(1.25,0,0,-1.25,0,103)"
     id="g10"><g
       transform="translate(-1.5939168,-19.126948)"
       clip-path="url(#clipPath18)"
       id="g16"><g
         transform="translate(28.793641,90.108739)"
         id="g1436"><path
           d="m 0,0 0.386,-0.713 -0.494,0.112 c -0.22,-0.119 -0.263,-0.297 -0.335,-0.498 -0.034,0.037 -0.471,0.134 -0.71,-0.011 -0.309,-0.198 -0.374,-0.576 -0.209,-0.88 0.311,-0.576 2.176,-1.221 2.212,-1.201 l 0.168,0.308 c -0.012,-0.006 -1.502,0.382 -1.768,0.874 -0.377,0.641 0.349,0.655 0.38,0.687 l 0.315,-0.583 0.556,-0.049 -0.354,0.655 c -0.101,0.186 0.094,0.446 0.291,0.49 L 1.267,-2.345 2.081,-2.402 0.612,0.316 0.953,0.499 0.701,0.966 -2.355,-0.682 -2.101,-1.15 0,0 z"
           id="path1438"
           style="fill:#004f8e;fill-opacity:1;fill-rule:nonzero;stroke:none" /></g><g
         transform="translate(12.390441,48.623142)"
         id="g1440"><path
           d="m 0,0 0.636,0.259 0.404,-1.111 0.622,0.253 -0.709,1.952 -3.315,-1.345 0.709,-1.952 0.659,0.266 -0.405,1.11 0.708,0.289 0.376,-1.037 0.691,0.281 L 0,0 z"
           id="path1442"
           style="fill:#004f8e;fill-opacity:1;fill-rule:nonzero;stroke:none" /></g><g
         transform="translate(24.862241,87.888942)"
         id="g1444"><path
           d="M 0,0 0.395,-0.612 -0.039,-0.893 C -0.347,-1.091 -0.346,-1.503 -0.17,-1.803 0.243,-2.471 1.034,-2.69 1.6,-2.325 2.084,-2.014 2.268,-1.546 2.288,-1.5 L 1.73,-1.227 C 1.74,-1.271 1.594,-1.746 1.159,-2.025 0.877,-2.208 0.572,-2.225 0.321,-1.836 0.192,-1.635 0.235,-1.373 0.435,-1.245 L 1.175,-0.766 0.482,0.311 1.049,0.677 0.761,1.124 -1.453,-0.303 -1.164,-0.75 0,0 z"
           id="path1446"
           style="fill:#004f8e;fill-opacity:1;fill-rule:nonzero;stroke:none" /></g><g
         transform="translate(10.020041,67.784742)"
         id="g1448"><path
           d="m 0,0 -0.099,-0.368 0.516,-0.137 0.097,0.368 2.563,-0.68 0.598,0.545 L 0.688,0.521 0.787,0.89 0.782,0.875 0.268,1.011 0.273,1.026 0.085,0.325 c 0,0 -0.225,-0.133 -0.475,-0.067 -0.33,0.089 -0.455,0.411 -0.324,0.903 0.265,0.999 1.373,1.587 1.386,1.584 L 0.569,2.966 C 0.557,2.97 -0.99,2.147 -1.297,0.983 -1.497,0.233 -0.625,-0.384 0,0"
           id="path1450"
           style="fill:#004f8e;fill-opacity:1;fill-rule:nonzero;stroke:none" /></g><g
         transform="translate(75.161641,50.093142)"
         id="g1452"><path
           d="M 0,0 -0.72,0.245 -0.395,1.303 -1.101,1.545 -1.426,0.488 -2.073,0.712 -1.725,1.842 -2.36,2.06 -2.971,0.071 0.406,-1.088 1.016,0.9 0.347,1.13 0,0 z"
           id="path1454"
           style="fill:#004f8e;fill-opacity:1;fill-rule:nonzero;stroke:none" /></g><g
         transform="translate(34.006537,91.923239)"
         id="g1456"><path
           d="m 0,0 0.1,-0.347 -0.764,-0.221 c -0.167,-0.047 -0.276,-0.214 -0.227,-0.383 0.155,-0.537 0.866,-0.828 0.934,-0.811 0.208,0.189 0.853,0.465 0.987,0.108 0.101,-0.304 -0.35,-0.506 -0.576,-0.571 -0.005,0.013 -0.224,0.255 -0.679,0.126 -0.206,-0.061 -0.3,-0.229 -0.252,-0.394 0.158,-0.549 1.12,-0.287 1.111,-0.261 l 0.787,-0.554 0.244,0.323 -0.745,0.356 c 0.046,0.026 0.607,0.407 0.438,0.997 -0.202,0.701 -1.077,0.606 -1.577,0.264 -0.163,0.023 -0.298,0.333 -0.07,0.399 L 0.76,-0.668 0.523,0.15 1.118,0.321 0.971,0.833 -1.56,0.105 -1.413,-0.407 0,0 z"
           id="path1458"
           style="fill:#004f8e;fill-opacity:1;fill-rule:nonzero;stroke:none" /></g><g
         transform="translate(36.635737,90.909739)"
         id="g1460"><path
           d="m 0,0 c -0.194,0.354 -0.853,0.293 -0.853,-0.15 0,-0.6 0.924,-0.478 0.924,-0.464 l 0.503,-0.867 0.309,0.198 -0.545,0.773 c 0.028,0.012 0.673,0.306 0.673,1.226 0,0.695 -0.451,1.464 -1.068,1.464 -0.46,0 -0.782,-0.305 -0.782,-0.708 0,-0.716 1.177,-1.077 1.263,-1.063 C 0.293,0.238 0.144,0.128 0,0 m -0.352,1.302 c 0,0.211 0.174,0.388 0.423,0.388 C 0.395,1.69 0.56,1.459 0.56,1.131 0.56,0.941 0.517,0.647 0.517,0.647 0.496,0.634 -0.352,0.899 -0.352,1.302"
           id="path1462"
           style="fill:#004f8e;fill-opacity:1;fill-rule:nonzero;stroke:none" /></g><g
         transform="translate(70.759041,46.750552)"
         id="g1464"><path
           d="M 0,0 3.191,-1.646 3.567,-0.829 0.378,0.814 0,0 z"
           id="path1466"
           style="fill:#004f8e;fill-opacity:1;fill-rule:nonzero;stroke:none" /></g><g
         transform="translate(11.191041,70.123042)"
         id="g1468"><path
           d="M 0,0 0.514,-0.136 0.327,-0.844 c -0.086,-0.319 0.202,-0.588 0.525,-0.674 0.59,-0.171 1.454,0.297 1.589,0.855 0.028,0.11 0.052,0.305 0.052,0.305 L 3.165,-0.277 3.281,0.16 2.484,-0.051 C 2.471,-0.048 2.409,0.198 2,0.308 1.547,0.429 1.256,-0.319 1.73,-0.445 1.868,-0.482 1.946,-0.457 1.959,-0.461 1.977,-0.815 1.71,-1.292 1.315,-1.187 1.031,-1.113 0.834,-0.95 0.898,-0.706 L 1.166,0.298 0.153,0.568 0.303,1.137 -0.211,1.274 -0.899,-1.313 -0.385,-1.449 0,0 z"
           id="path1470"
           style="fill:#004f8e;fill-opacity:1;fill-rule:nonzero;stroke:none" /></g><g
         transform="translate(72.749341,49.613842)"
         id="g1472"><path
           d="m 0,0 -0.643,0.303 -0.88,-2.091 0.644,-0.301 0.27,0.643 2.601,-1.223 0.353,0.837 -2.6,1.225 L 0,0 z"
           id="path1474"
           style="fill:#004f8e;fill-opacity:1;fill-rule:nonzero;stroke:none" /></g><g
         transform="translate(34.577441,93.436039)"
         id="g1476"><path
           d="M 0,0 -0.531,0.51 -1.069,0 -0.531,-0.505 0,0 z"
           id="path1478"
           style="fill:#004f8e;fill-opacity:1;fill-rule:nonzero;stroke:none" /></g><g
         transform="translate(15.141137,79.078552)"
         id="g1480"><path
           d="m 0,0 -0.764,-1.223 0.45,-0.28 0.201,0.322 2.248,-1.407 0.732,0.344 -2.618,1.64 0.203,0.322 L 0,0 z"
           id="path1482"
           style="fill:#004f8e;fill-opacity:1;fill-rule:nonzero;stroke:none" /></g><g
         transform="translate(13.754441,78.390042)"
         id="g1484"><path
           d="M 0,0 0.988,0.074 1.129,0.298 C 1.099,0.302 0.233,0.293 -0.414,0.225 -0.615,0.2 -0.78,0.143 -0.895,-0.04 l -0.407,-0.65 0.641,-0.106 C -0.633,-0.534 -0.305,-0.013 0,0"
           id="path1486"
           style="fill:#004f8e;fill-opacity:1;fill-rule:nonzero;stroke:none" /></g><g
         transform="translate(8.7257373,58.194242)"
         id="g1488"><path
           d="M 0,0 1.335,0.801 1.714,-0.709 2.092,0.801 3.427,0 2.626,1.336 4.138,1.715 2.626,2.092 3.427,3.427 2.092,2.626 1.714,4.136 1.335,2.626 0,3.427 0.8,2.092 -0.709,1.715 0.8,1.336 0,0 z"
           id="path1490"
           style="fill:#004f8e;fill-opacity:1;fill-rule:nonzero;stroke:none" /></g><g
         transform="translate(13.272841,75.261442)"
         id="g1492"><path
           d="M 0,0 C 0.103,0.179 0.295,0.252 0.449,0.163 0.815,-0.049 0.417,-0.788 0.387,-0.788 l 0.567,-0.054 c 0.066,0.168 0.115,0.322 0.139,0.5 0.461,0.239 1.029,-0.157 0.726,-0.677 C 1.438,-1.678 0.395,-1.438 0.363,-1.413 L 0.336,-1.703 C 0.36,-1.717 1.928,-1.945 2.345,-1.226 2.64,-0.716 2.49,-0.338 2.076,-0.1 1.846,0.033 1.522,0.005 1.522,0.005 1.611,0.021 1.824,0.13 1.944,0.284 2.017,0.382 2.089,0.59 2.089,0.59 L 3.222,-0.066 3.938,0.298 1.264,1.846 1.459,2.181 0.999,2.447 0.101,0.896 0.707,0.883 0.927,1.263 1.559,0.896 C 1.543,0.872 1.572,0.484 1.445,0.265 1.351,0.105 1.082,-0.062 1.082,-0.062 1.048,-0.011 0.933,0.238 0.788,0.355 0.389,0.646 -0.305,0.468 -0.52,0.094 -0.707,-0.254 -0.837,-0.669 -0.844,-0.68 l 0.557,-0.075 C -0.292,-0.736 -0.154,-0.267 0,0"
           id="path1494"
           style="fill:#004f8e;fill-opacity:1;fill-rule:nonzero;stroke:none" /></g><g
         transform="translate(11.757441,52.646842)"
         id="g1496"><path
           d="M 0,0 0.688,0.156 0.24,2.392 -0.45,2.238 -0.311,1.548 -3.095,0.924 -2.913,0.026 -0.13,0.651 0,0 z"
           id="path1498"
           style="fill:#004f8e;fill-opacity:1;fill-rule:nonzero;stroke:none" /></g><g
         transform="translate(19.218737,83.286552)"
         id="g1500"><path
           d="m 0,0 1.156,-1.196 c -0.027,0.049 2.233,0.527 2.309,0.449 0.167,-0.173 -0.127,-0.53 -0.136,-0.541 l 0.615,0.065 c 0.032,0.03 0.172,0.495 -0.024,0.696 -0.117,0.122 -0.266,0.134 -0.452,0.095 L 1.698,-0.766 0.496,0.479 1.218,1.176 2.014,0.353 C 2.109,0.255 2.166,0.019 2.053,-0.092 l 0.676,0.065 C 2.831,0.25 2.71,0.561 2.526,0.753 L 1.683,1.625 1.946,1.879 1.576,2.263 -0.622,0.139 -0.254,-0.245 0,0 z"
           id="path1502"
           style="fill:#004f8e;fill-opacity:1;fill-rule:nonzero;stroke:none" /></g><g
         transform="translate(21.725737,85.733742)"
         id="g1504"><path
           d="m 0,0 0.53,-0.718 c 0.006,-0.012 0.994,-0.362 1.445,-0.03 0.306,0.225 0.404,0.661 0.189,0.953 L 1.502,1.105 1.63,1.199 1.315,1.627 -0.495,0.298 -0.179,-0.132 0,0 z M 0.994,0.731 1.656,-0.17 C 1.838,-0.417 1.323,-0.78 1.14,-0.533 l -0.654,0.89 0.508,0.374 z"
           id="path1506"
           style="fill:#004f8e;fill-opacity:1;fill-rule:nonzero;stroke:none" /></g><g
         transform="translate(12.956737,51.149952)"
         id="g1508"><path
           d="m 0,0 -1.283,-0.441 -0.174,0.568 1.281,0.441 -0.263,0.862 -3.377,-1.16 0.266,-0.862 1.389,0.478 0.174,-0.57 -1.389,-0.475 0.269,-0.874 3.375,1.159 L 0,0 z"
           id="path1510"
           style="fill:#004f8e;fill-opacity:1;fill-rule:nonzero;stroke:none" /></g><g
         transform="translate(17.216937,81.034742)"
         id="g1512"><path
           d="M 0,0 0.612,0.695 1.283,0.103 0.95,-0.273 C 0.883,-0.349 0.898,-0.457 0.974,-0.525 1.363,-0.888 3.478,-0.833 3.495,-0.791 l 0.05,0.312 C 3.183,-0.516 2.947,-0.506 2.56,-0.501 2.338,-0.495 1.97,-0.468 1.97,-0.468 1.961,-0.459 2.171,0.16 1.659,0.61 1.378,0.859 1.004,1.115 0.993,1.123 L 1.335,1.511 0.937,1.863 -0.398,0.352 0,0 z"
           id="path1514"
           style="fill:#004f8e;fill-opacity:1;fill-rule:nonzero;stroke:none" /></g><g
         transform="translate(56.298741,89.147242)"
         id="g1516"><path
           d="m 0,0 -0.262,0.135 c -0.063,0.033 -0.104,-0.03 -0.134,-0.091 -0.13,-0.187 0.18,-1.069 0.415,-1.19 0.04,-0.021 0.116,0.003 0.141,0.05 L 0.317,-0.793 1.113,-1.205 1.37,-0.71 0.572,-0.296 1.022,0.568 1.454,0.344 1.7,0.817 0.211,1.553 -0.033,1.08 0.449,0.866 0,0 z"
           id="path1518"
           style="fill:#004f8e;fill-opacity:1;fill-rule:nonzero;stroke:none" /></g><g
         transform="translate(38.648541,92.866239)"
         id="g1520"><path
           d="M 0,0 C 0,0 0.168,-0.252 0.184,-0.434 0.23,-0.929 -0.53,-0.959 -0.53,-0.959 c -0.007,-0.07 0.164,-1.305 1.319,-1.199 0.251,0.022 0.402,0.105 0.598,0.252 L 1.448,-2.556 2.16,-2.943 1.871,0.173 2.265,0.21 2.216,0.738 -0.855,0.456 -0.807,-0.074 0,0 z M 1.201,0.111 1.313,-1.11 c -0.217,-0.528 -0.95,-0.793 -1.37,-0.368 0.736,0.068 0.729,1.075 0.379,1.508 l 0.879,0.081 z"
           id="path1522"
           style="fill:#004f8e;fill-opacity:1;fill-rule:nonzero;stroke:none" /></g><g
         transform="translate(70.647241,77.721642)"
         id="g1524"><path
           d="m 0,0 -2.292,-1.334 -0.036,-0.809 2.67,1.553 0.193,-0.328 0.458,0.266 -0.363,0.626 c 0,0 0.064,0.254 0.288,0.384 C 1.213,0.53 1.53,0.391 1.786,-0.05 2.306,-0.943 1.94,-2.144 1.929,-2.151 L 2.157,-2.232 C 2.168,-2.225 2.679,-0.552 2.073,0.49 1.683,1.161 0.628,0.98 0.46,0.266 L 0.268,0.595 -0.19,0.328 0,0 z"
           id="path1526"
           style="fill:#004f8e;fill-opacity:1;fill-rule:nonzero;stroke:none" /></g><g
         transform="translate(68.196541,81.133952)"
         id="g1528"><path
           d="M 0,0 1.416,-1.934 0.76,-2.409 0.807,-1.907 c -0.147,0.205 -0.33,0.224 -0.537,0.269 0.03,0.039 0.07,0.484 -0.107,0.702 -0.236,0.281 -0.618,0.297 -0.899,0.092 -0.529,-0.382 -0.924,-2.315 -0.899,-2.35 l 0.327,-0.125 c -0.01,0.011 0.182,1.538 0.634,1.866 0.585,0.459 0.693,-0.26 0.729,-0.287 l -0.535,-0.387 0.025,-0.558 0.602,0.436 c 0.171,0.124 0.454,-0.035 0.524,-0.223 l -1.415,-1.023 0.05,-0.816 2.502,1.812 0.227,-0.314 0.431,0.312 L 0.432,0.312 0,0 z"
           id="path1530"
           style="fill:#004f8e;fill-opacity:1;fill-rule:nonzero;stroke:none" /></g><g
         transform="translate(83.443641,61.145152)"
         id="g1532"><path
           d="m 0,0 -0.108,2.089 -0.213,2.06 -0.313,2.028 -0.414,1.994 -0.508,1.955 -0.602,1.916 -0.692,1.875 -0.782,1.828 -0.864,1.782 -0.949,1.733 -1.027,1.679 -1.107,1.624 -1.18,1.567 -1.251,1.508 -1.322,1.445 -1.387,1.379 -1.451,1.314 -1.513,1.241 -1.572,1.171 -1.628,1.094 -1.682,1.017 -1.731,0.937 -1.78,0.855 -1.825,0.771 -1.868,0.681 -1.91,0.592 -1.944,0.498 -1.981,0.405 -2.013,0.305 -2.04,0.205 -2.068,0.103 -2.092,-0.002 -2.091,-0.107 -2.058,-0.214 -2.029,-0.314 -1.991,-0.413 -1.957,-0.509 -1.916,-0.602 -1.875,-0.692 -1.828,-0.78 -1.783,-0.866 -1.732,-0.947 -1.679,-1.029 -1.626,-1.105 -1.565,-1.18 -1.508,-1.253 -1.445,-1.32 -1.379,-1.387 -1.312,-1.453 -1.244,-1.513 -1.17,-1.572 -1.094,-1.627 -1.018,-1.681 -0.936,-1.732 -0.855,-1.781 -0.769,-1.825 -0.683,-1.868 -0.591,-1.908 -0.501,-1.946 -0.403,-1.979 -0.305,-2.013 -0.207,-2.042 -0.103,-2.068 0.003,-2.091 0.108,-2.09 0.214,-2.058 0.314,-2.029 0.413,-1.993 0.509,-1.956 0.601,-1.916 0.693,-1.874 0.78,-1.83 0.864,-1.781 0.95,-1.732 1.028,-1.679 1.105,-1.626 1.18,-1.567 1.252,-1.507 1.321,-1.444 1.387,-1.38 1.453,-1.313 1.513,-1.242 1.571,-1.17 1.628,-1.094 1.681,-1.019 1.732,-0.937 1.78,-0.853 1.824,-0.771 1.869,-0.682 1.909,-0.591 1.945,-0.5 1.98,-0.405 2.013,-0.304 2.041,-0.206 2.068,-0.102 2.092,0.002 2.09,0.109 2.059,0.213 2.028,0.314 1.993,0.411 1.956,0.509 1.917,0.602 1.873,0.692 1.829,0.782 1.782,0.866 1.732,0.947 1.679,1.028 1.625,1.106 1.568,1.18 1.506,1.251 1.445,1.321 1.38,1.388 1.313,1.451 1.242,1.513 1.17,1.573 1.094,1.627 1.019,1.681 0.937,1.732 0.853,1.781 0.771,1.824 0.682,1.87 0.591,1.906 0.5,1.946 0.404,1.981 0.305,2.012 L -0.1,-4.16 0.003,-2.092 0,0 z m -39.695,-40.076 c -21.477,-0.572 -39.459,16.478 -40.031,37.954 -0.572,21.477 16.478,39.459 37.955,40.03 21.476,0.573 39.459,-16.477 40.03,-37.954 0.572,-21.476 -16.478,-39.459 -37.954,-40.03"
           id="path1534"
           style="fill:#004f8e;fill-opacity:1;fill-rule:nonzero;stroke:none" /></g><g
         transform="translate(63.712541,86.950642)"
         id="g1536"><path
           d="M 0,0 C 0.154,0.182 0.33,0.321 0.641,0.055 1.139,-0.368 0.8,-1.377 0.8,-1.377 l -0.428,0.362 -0.344,-0.404 0.291,-0.246 -1.716,-2.022 0.236,-0.774 2,2.355 0.29,-0.246 0.344,0.405 -0.449,0.38 c 0,0 0.606,1.534 -0.057,2.097 -0.449,0.38 -0.821,0.33 -1.126,-0.029 -0.3,-0.353 -0.217,-0.879 -0.217,-0.879 l 0.027,-0.023 0.198,-0.143 C -0.147,-0.48 -0.124,-0.146 0,0"
           id="path1538"
           style="fill:#004f8e;fill-opacity:1;fill-rule:nonzero;stroke:none" /></g><g
         transform="translate(74.076841,72.066152)"
         id="g1540"><path
           d="m 0,0 0.098,-0.247 c 0.019,0.024 0.526,0.726 0.855,1.286 0.097,0.179 0.149,0.346 0.07,0.545 L 0.739,2.298 0.275,1.845 C 0.47,1.665 0.696,1.093 0.525,0.841 L 0,0 z"
           id="path1542"
           style="fill:#004f8e;fill-opacity:1;fill-rule:nonzero;stroke:none" /></g><g
         transform="translate(62.214441,85.772942)"
         id="g1544"><path
           d="M 0,0 -1.328,0.956 C -1.41,1.013 -1.511,0.971 -1.57,0.912 c -0.227,-0.265 -0.082,-1.218 0.074,-1.33 0.059,-0.044 0.126,0.026 0.162,0.076 l 0.283,0.393 0.716,-0.516 -0.78,-1.084 0.284,-0.76 L 0.997,0.23 1.318,0 1.629,0.431 1.346,0.634 1.346,0.611 1.148,0.777 -0.876,2.235 -1.186,1.803 0.45,0.625 0,0 z"
           id="path1546"
           style="fill:#004f8e;fill-opacity:1;fill-rule:nonzero;stroke:none" /></g><g
         transform="translate(73.615041,68.922552)"
         id="g1548"><path
           d="M 0,0 0.29,-0.985 1.173,-0.723 1.311,-1.191 1.822,-1.042 1.089,1.443 0.579,1.292 1.015,-0.187 0.584,-0.314 0.36,0.442 C 0.317,0.586 0.166,0.715 0.022,0.672 -0.576,0.51 -0.874,-0.408 -0.871,-0.42 c 0.019,-0.042 0.208,-0.248 0.233,-0.427 0.035,-0.168 0.104,-0.396 -0.049,-0.441 -0.203,-0.058 -0.523,0.257 -0.614,0.568 -0.209,0.753 0.297,1.208 0.354,1.256 l -0.246,0.16 c -0.046,-0.014 -0.78,-0.874 -0.547,-1.665 0.113,-0.379 0.549,-0.774 1.045,-0.628 0.413,0.122 0.615,0.593 0.497,0.993 -0.043,0.196 -0.191,0.429 -0.225,0.448 C -0.482,0.044 -0.071,0.241 0,0"
           id="path1550"
           style="fill:#004f8e;fill-opacity:1;fill-rule:nonzero;stroke:none" /></g><g
         transform="translate(45.246241,77.770042)"
         id="g1552"><path
           d="M 0,0 C -0.042,0.044 -0.089,0.085 -0.149,0.117 L 0,-0.002 0,0 z"
           id="path1554"
           style="fill:#004f8e;fill-opacity:1;fill-rule:nonzero;stroke:none" /></g><g
         transform="translate(71.374041,76.504952)"
         id="g1556"><path
           d="m 0,0 0.243,-0.457 -0.902,-0.479 -0.14,0.259 c -0.034,0.063 -0.108,0.032 -0.157,0.006 -0.224,-0.087 -0.421,-0.964 -0.297,-1.199 0.02,-0.038 0.096,-0.064 0.143,-0.038 l 0.301,0.162 0.422,-0.793 -0.988,-0.525 -0.074,-0.818 2.74,1.455 0.184,-0.348 0.469,0.25 L 0.469,0.249 0,0 z m 0.967,-1.819 -0.904,-0.479 -0.419,0.791 0.902,0.481 0.421,-0.793 z"
           id="path1558"
           style="fill:#004f8e;fill-opacity:1;fill-rule:nonzero;stroke:none" /></g><g
         transform="translate(73.432541,72.249552)"
         id="g1560"><path
           d="m 0,0 -0.679,-0.268 -0.19,0.481 c -0.135,0.34 -0.539,0.418 -0.868,0.304 -0.734,-0.276 -1.105,-1.007 -0.856,-1.635 0.211,-0.535 0.635,-0.808 0.675,-0.836 l 0.376,0.497 c -0.043,-0.002 -0.481,0.233 -0.67,0.713 -0.126,0.314 -0.082,0.615 0.347,0.787 0.222,0.087 0.473,-0.007 0.56,-0.227 l 0.325,-0.822 1.191,0.473 0.248,-0.628 0.495,0.195 -0.97,2.449 L -0.509,1.288 0,0 z"
           id="path1562"
           style="fill:#004f8e;fill-opacity:1;fill-rule:nonzero;stroke:none" /></g><g
         transform="translate(65.046241,80.650342)"
         id="g1564"><path
           d="M 0,0 0.108,-0.802 2.464,1.194 2.711,0.904 3.116,1.247 2.647,1.8 c 0,0 0.02,0.262 0.218,0.428 C 3.126,2.45 3.462,2.368 3.79,1.979 4.459,1.191 4.309,-0.056 4.298,-0.063 L 4.539,-0.105 C 4.548,-0.097 4.758,1.64 3.979,2.561 3.478,3.153 2.471,2.789 2.429,2.057 L 2.184,2.347 1.779,2.004 2.023,1.714 0,0 z"
           id="path1566"
           style="fill:#004f8e;fill-opacity:1;fill-rule:nonzero;stroke:none" /></g><g
         transform="translate(76.152841,60.286242)"
         id="g1568"><path
           d="m 0,0 0.801,1.335 -1.336,-0.801 -0.379,1.51 -0.375,-1.51 -1.337,0.801 0.8,-1.335 -1.509,-0.377 1.509,-0.379 -0.8,-1.336 1.337,0.801 0.375,-1.51 0.379,1.51 L 0.801,-2.092 0,-0.756 1.511,-0.377 0,0 z"
           id="path1570"
           style="fill:#004f8e;fill-opacity:1;fill-rule:nonzero;stroke:none" /></g><g
         transform="translate(46.473041,94.395239)"
         id="g1572"><path
           d="M 0,0 -0.531,0.511 -1.069,0 -0.531,-0.504 0,0 z"
           id="path1574"
           style="fill:#004f8e;fill-opacity:1;fill-rule:nonzero;stroke:none" /></g><g
         transform="translate(44.562541,94.429549)"
         id="g1576"><path
           d="m 0,0 0.531,-0.836 -1.202,0.084 -0.037,-0.531 0.923,-0.065 -0.061,-0.89 -0.502,0.035 c -0.099,0.006 -0.176,-0.069 -0.185,-0.171 -0.051,-0.53 1.282,-2.175 1.324,-2.165 l 0.278,0.152 C 0.819,-4.123 0.683,-3.93 0.453,-3.619 0.322,-3.44 0.12,-3.132 0.12,-3.132 c 0,0.014 0.619,0.223 0.668,0.903 0.025,0.375 0,0.828 0.001,0.841 l 0.514,-0.035 0.038,0.53 -0.545,0.038 -0.222,0.016 0.222,-0.016 c -0.014,0.03 -0.426,0.79 -0.792,1.326 -0.118,0.165 -0.246,0.284 -0.461,0.3 L -1.221,0.824 -1.014,0.208 C -0.769,0.306 -0.154,0.263 0,0"
           id="path1578"
           style="fill:#004f8e;fill-opacity:1;fill-rule:nonzero;stroke:none" /></g><g
         transform="translate(75.941441,53.994752)"
         id="g1580"><path
           d="M 0,0 -1.839,0.414 C -2.166,0.487 -2.401,0.434 -2.542,0.26 -2.685,0.084 -2.805,-0.243 -2.902,-0.725 l -0.203,-1.013 3.471,-0.781 0.243,1.207 C 0.69,-0.909 0.673,-0.603 0.557,-0.397 0.439,-0.189 0.254,-0.057 0,0 m -0.071,-1.494 -2.278,0.512 c 0.005,0.022 0.01,0.043 0.013,0.064 0.003,0.02 0.008,0.041 0.013,0.063 0.024,0.102 0.065,0.192 0.122,0.271 0.059,0.079 0.154,0.105 0.29,0.075 l 1.584,-0.357 c 0.164,-0.037 0.256,-0.111 0.276,-0.221 0.019,-0.109 0.013,-0.246 -0.02,-0.407"
           id="path1582"
           style="fill:#004f8e;fill-opacity:1;fill-rule:nonzero;stroke:none" /></g><g
         transform="translate(41.893941,94.451949)"
         id="g1584"><path
           d="m 0,0 0.589,-0.798 -0.616,0 0,-0.531 0.379,0 0,-2.654 0.682,-0.436 0,3.09 0.381,0 0,0.531 -0.562,0 c -0.014,0.027 -0.48,0.757 -0.881,1.267 -0.131,0.159 -0.266,0.267 -0.481,0.267 l -0.768,0 0.251,-0.6 C -0.788,0.252 -0.173,0.252 0,0"
           id="path1586"
           style="fill:#004f8e;fill-opacity:1;fill-rule:nonzero;stroke:none" /></g><g
         transform="translate(52.459241,89.357552)"
         id="g1588"><path
           d="M 0,0 C 0.301,-0.121 0.647,-0.046 0.66,-0.051 L 0.443,-0.596 0.888,-1.259 1.406,0.038 c 0,0 0.3,0.227 0.692,0.068 C 2.346,0.008 2.425,-0.141 2.362,-0.3 2.173,-0.731 1.626,-0.923 1.572,-0.901 L 1.93,-1.494 C 1.935,-1.481 2.395,-1.2 2.611,-0.663 2.842,-0.081 2.482,0.541 2.108,0.69 1.962,0.749 1.689,0.741 1.689,0.741 L 2.025,1.583 3.484,1 3.681,1.493 0.016,2.883 -0.182,2.39 1.412,1.829 0.937,0.638 C 0.931,0.627 0.425,0.328 -0.048,0.519 -0.187,0.574 -0.404,0.631 -0.295,0.902 -0.076,1.448 0.937,0.969 0.922,0.931 L 0.765,1.602 C 0.739,1.613 -0.241,1.946 -0.499,1.301 -0.691,0.82 -0.425,0.17 0,0"
           id="path1590"
           style="fill:#004f8e;fill-opacity:1;fill-rule:nonzero;stroke:none" /></g><g
         transform="translate(57.883641,88.060142)"
         id="g1592"><path
           d="M 0,0 C -0.006,-0.013 0.076,-0.872 0.457,-1.089 0.636,-1.194 0.961,-1.248 0.974,-1.256 L 0.539,-2.004 0.899,-2.732 2.464,-0.022 2.807,-0.22 3.072,0.24 0.644,1.643 0.377,1.183 0.607,1.05 0,0 z M 1.178,0.72 1.881,0.314 1.328,-0.642 C 1.036,-0.732 0.724,-0.71 0.431,-0.572 L 1.178,0.72 z"
           id="path1594"
           style="fill:#004f8e;fill-opacity:1;fill-rule:nonzero;stroke:none" /></g><g
         transform="translate(13.890241,42.850342)"
         id="g1596"><path
           d="M 0,0 1.37,0.838 C 1.651,1.007 1.805,1.216 1.835,1.462 1.865,1.707 1.836,1.943 1.75,2.168 1.732,2.211 1.714,2.25 1.693,2.293 1.676,2.336 1.656,2.377 1.633,2.415 1.473,2.712 1.272,2.925 1.029,3.055 0.788,3.186 0.514,3.156 0.204,2.969 L -1.166,2.133 C -1.424,1.974 -1.615,1.76 -1.735,1.492 c -0.122,-0.271 -0.075,-0.603 0.143,-1 0.213,-0.39 0.454,-0.616 0.727,-0.677 0.271,-0.064 0.559,0 0.865,0.185 m -0.836,0.661 c -0.073,0.029 -0.128,0.077 -0.168,0.138 -0.002,0.003 -0.004,0.007 -0.004,0.008 -10e-4,0.002 -0.003,0.005 -0.004,0.007 -0.036,0.069 -0.048,0.144 -0.035,0.23 0.014,0.084 0.063,0.152 0.149,0.204 L 0.667,2.203 C 0.756,2.259 0.839,2.27 0.913,2.238 0.986,2.209 1.043,2.159 1.08,2.09 1.082,2.087 1.083,2.086 1.083,2.084 1.085,2.082 1.086,2.079 1.088,2.076 1.119,2.009 1.129,1.935 1.116,1.853 1.105,1.772 1.055,1.705 0.967,1.653 L -0.597,0.698 C -0.682,0.644 -0.763,0.633 -0.836,0.661"
           id="path1598"
           style="fill:#004f8e;fill-opacity:1;fill-rule:nonzero;stroke:none" /></g><g
         transform="translate(41.713441,97.520439)"
         id="g1600"><path
           d="m 0,0 c -20.633,-0.549 -37.012,-17.824 -36.462,-38.457 0.549,-20.631 17.824,-37.01 38.457,-36.462 20.631,0.549 37.012,17.824 36.462,38.457 C 37.908,-15.831 20.631,0.55 0,0 m 1.963,-73.771 c -19.998,-0.53 -36.742,15.346 -37.277,35.344 -0.531,20 15.346,36.744 35.344,37.277 20,0.533 36.744,-15.343 37.277,-35.342 0.533,-20 -15.345,-36.745 -35.344,-37.279"
           id="path1602"
           style="fill:#004f8e;fill-opacity:1;fill-rule:nonzero;stroke:none" /></g><g
         transform="translate(48.923641,89.498439)"
         id="g1604"><path
           d="M 0,0 0.411,3.062 0.795,3.009 0.865,3.536 -2.547,3.995 -2.618,3.468 -1.702,3.345 -1.806,2.567 -2.303,2.634 C -2.402,2.648 -2.485,2.575 -2.499,2.467 -2.576,2.011 -1.605,0.174 -1.549,0.166 l 0.358,0.126 c -0.166,0.331 -0.28,0.553 -0.458,0.907 -0.103,0.206 -0.267,0.55 -0.267,0.55 0,0 0.223,0.089 0.352,0.195 0.099,0.076 0.214,0.239 0.216,0.254 0,0 0.243,-0.289 0.465,-0.36 0.158,-0.062 0.442,-0.046 0.442,-0.046 L -0.611,0.521 0,0 z m -0.826,2.257 c -0.157,0.022 -0.382,0.12 -0.409,0.138 0.173,0.26 0.065,0.596 0.103,0.873 L -0.257,3.151 -0.361,2.374 c 0,0 -0.172,-0.141 -0.465,-0.117"
           id="path1606"
           style="fill:#004f8e;fill-opacity:1;fill-rule:nonzero;stroke:none" /></g><g
         transform="translate(47.464341,79.815542)"
         id="g1608"><path
           d="m 0,0 -0.631,0.136 -0.246,-1.143 c 0.255,-0.033 0.496,0.024 0.696,0.161 L 0,0 z"
           id="path1610"
           style="fill:#004f8e;fill-opacity:1;fill-rule:nonzero;stroke:none" /></g><g
         transform="translate(15.719441,79.846152)"
         id="g1612"><path
           d="M 0,0 -0.223,-0.308 0.206,-0.62 0.431,-0.313 2.576,-1.872 3.331,-1.577 0.831,0.24 1.055,0.547 0.624,0.859 0.198,0.273 c 0,0 -0.258,-0.043 -0.467,0.109 -0.276,0.2 -0.278,0.547 0.022,0.959 0.607,0.837 1.854,0.987 1.863,0.977 L 1.6,2.563 C 1.589,2.571 -0.147,2.36 -0.856,1.385 -1.311,0.758 -0.72,-0.135 0,0"
           id="path1614"
           style="fill:#004f8e;fill-opacity:1;fill-rule:nonzero;stroke:none" /></g><g
         transform="translate(57.921941,74.036842)"
         id="g1616"><path
           d="M 0,0 0,0 -0.146,0.152 0,0 z"
           id="path1618"
           style="fill:#004f8e;fill-opacity:1;fill-rule:nonzero;stroke:none" /></g><g
         transform="translate(42.020641,85.959042)"
         id="g1620"><path
           d="m 0,0 c -14.265,-0.38 -25.587,-12.322 -25.208,-26.588 0.379,-14.264 12.324,-25.587 26.588,-25.208 14.262,0.379 25.587,12.323 25.208,26.588 C 26.207,-10.944 14.264,0.381 0,0 m 1.348,-50.646 c -13.631,-0.363 -25.044,10.458 -25.406,24.088 -0.363,13.631 10.457,25.045 24.088,25.409 13.631,0.363 25.045,-10.46 25.408,-24.091 0.363,-13.63 -10.457,-25.044 -24.09,-25.406"
           id="path1622"
           style="fill:#004f8e;fill-opacity:1;fill-rule:nonzero;stroke:none" /></g><g
         transform="translate(42.087241,83.439352)"
         id="g1624"><path
           d="m 0,0 c -12.876,-0.343 -23.099,-11.124 -22.755,-24.001 0.343,-12.877 11.124,-23.099 24.002,-22.755 12.876,0.343 23.098,11.124 22.754,24 C 23.659,-9.879 12.877,0.342 0,0 m -8.415,-14.968 -0.995,-1.197 -2.525,2.347 1.825,0.777 1.695,-1.927 z m -1.592,3.264 1.933,0.436 1.323,-2.201 -1.182,-1.018 -2.074,2.783 z m -1.737,-3.367 2.005,-1.603 -0.777,-1.358 -2.89,1.879 1.662,1.082 z m -1.264,-2.301 2.228,-1.258 -0.515,-1.445 -3.159,1.347 1.446,1.356 z m -0.816,-2.389 2.383,-0.846 -0.241,-1.496 -3.34,0.763 1.198,1.579 z m 2.207,-5.366 0.276,-1.516 -3.371,-0.462 0.551,1.904 2.544,0.074 z m -2.041,-2.497 2.493,0.513 0.563,-1.459 -3.286,-1.025 0.23,1.971 z m 3.377,-1.574 0.792,-1.296 -3.046,-1.616 -0.129,1.979 2.383,0.933 z m 1.113,-1.773 1.048,-1.131 -2.756,-2.109 -0.459,1.93 2.167,1.31 z m 1.424,-1.517 1.185,-0.954 -2.354,-2.539 -0.775,1.825 1.944,1.668 z m 1.744,-1.337 1.352,-0.739 -1.88,-2.918 -1.086,1.659 1.614,1.998 z m 2.024,-1.062 1.464,-0.462 -1.313,-3.214 -1.372,1.433 1.221,2.243 z m 2.054,-0.561 1.508,-0.247 -0.804,-3.377 -1.575,1.203 0.871,2.421 z M -11.1,-23.69 c -0.173,6.457 4.953,11.864 11.411,12.035 6.456,0.173 11.864,-4.955 12.035,-11.41 0.173,-6.458 -4.954,-11.865 -11.41,-12.038 -6.458,-0.171 -11.865,4.956 -12.036,11.413 m 6.836,11.654 -0.97,3.334 1.965,-0.27 0.466,-2.524 -1.461,-0.54 z m 9.83,-0.004 -1.457,0.545 1.383,3.185 1.34,-1.461 -1.266,-2.269 z m 2.46,2.669 1.068,-1.67 -1.629,-2.018 -1.35,0.79 1.911,2.898 z m -4.479,-1.967 -1.538,0.257 0.814,3.375 1.571,-1.209 -0.847,-2.423 z m 11.497,-7.955 -2.577,-0.487 -0.524,1.424 3.352,1.03 -0.251,-1.967 z m 1.089,-0.709 -0.593,-1.892 -2.61,-0.03 -0.258,1.523 3.461,0.399 z m -4.428,2.165 -0.775,1.313 3.134,1.575 0.086,-1.981 -2.445,-0.907 z m -1.184,1.86 -0.983,1.193 2.797,2.1 0.439,-1.935 -2.253,-1.358 z m -2.863,-17.581 1.615,-3.116 -1.981,-0.11 -0.937,2.444 1.303,0.782 z m 0.514,0.387 1.158,0.978 2.128,-2.778 -1.932,-0.454 -1.354,2.254 z m 1.607,1.458 0.948,1.178 2.593,-2.368 -1.822,-0.785 -1.719,1.975 z m 3.249,-0.08 -2.035,1.676 0.778,1.316 2.927,-1.921 -1.67,-1.071 z m 1.261,2.249 -2.282,1.297 0.531,1.439 3.212,-1.394 -1.461,-1.342 z m 0.856,2.437 -2.472,0.892 0.251,1.479 3.43,-0.797 -1.209,-1.574 z m 0.427,2.582 -2.575,0.425 -0.015,1.545 3.507,-0.211 -0.917,-1.759 z m -0.246,16.71 0.201,0.469 0.423,-0.441 c 0.118,-0.124 0.131,-0.26 0.114,-0.42 -0.067,-0.507 -0.221,-1.169 -0.231,-1.194 l 0.334,-0.348 -0.3,-0.288 -0.217,0.226 -1.77,-1.698 -0.117,0.631 0.369,0.355 c -0.187,0.049 -0.312,0.105 -0.452,0.248 -0.641,0.669 0.033,1.378 0.079,1.406 0,0 0.397,-0.458 0.677,-0.188 0.105,0.1 0.177,0.326 0.177,0.326 l -0.448,0.467 0.302,0.287 1.221,-1.272 0.127,0.77 c 0.047,0.235 -0.294,0.591 -0.489,0.664 m -1.065,0.014 -0.266,-0.322 -0.232,0.192 -1.537,-1.87 -0.203,0.61 1.319,1.605 -0.233,0.192 0.265,0.322 0.887,-0.729 z m -2.982,0.75 c 0.046,0.065 0.13,0.083 0.195,0.036 l 0.324,-0.235 0.412,0.565 -0.596,0.435 0.246,0.336 1.296,-0.945 -0.245,-0.338 -0.333,0.243 c -0.005,-0.008 -0.176,-0.32 -0.349,-0.558 -0.314,-0.43 -0.818,-0.308 -0.825,-0.318 0,0 0.008,-0.288 0.021,-0.465 0.027,-0.302 0.038,-0.49 0.095,-0.77 l -0.249,0.017 c -0.033,0.011 -0.246,1.667 0.008,1.997 m -0.141,-5.668 -1.967,-1.694 -1.183,1.011 2.393,2.516 0.757,-1.833 z m -2.014,8.232 1.034,-0.496 -0.179,-0.376 -0.275,0.132 -1.046,-2.182 -0.34,0.544 0.898,1.871 -0.273,0.132 0.181,0.375 z M 7.756,-3.9 8.814,-4.345 8.652,-4.729 8.373,-4.614 7.437,-6.844 7.068,-6.317 7.874,-4.402 7.595,-4.285 7.756,-3.9 z m -1.192,0.133 c 0.081,0.191 0.329,0.291 0.513,0.213 0.372,-0.16 0.508,-0.658 0.351,-1.028 -0.21,-0.496 -0.989,-0.415 -1.027,-0.4 0,0 0.057,-0.261 0.304,-0.366 0.295,-0.125 0.717,-0.02 0.739,0 L 7.224,-5.865 C 6.496,-5.898 5.888,-5.151 6.176,-4.479 6.348,-4.552 6.561,-4.55 6.724,-4.618 6.68,-4.576 6.432,-4.077 6.564,-3.767 m -2.45,0.843 2.184,-0.472 -0.089,-0.407 -0.306,0.066 -0.515,-2.398 -0.453,0.459 0.143,0.663 c -0.011,0.003 -0.271,-0.034 -0.433,0 -0.339,0.074 -0.614,0.696 -0.614,0.707 l 0.202,0.929 -0.206,0.045 0.087,0.408 z M 2.323,-6.122 2.019,-5.806 c 0.025,0.03 0.439,0.363 0.74,0.333 0.099,-0.011 0.178,-0.043 0.251,-0.079 l -0.35,0.277 0.102,0.999 c 0,0 -0.226,-0.02 -0.353,0.026 C 2.23,-4.2 2.03,-3.981 2.03,-3.981 2.029,-3.99 1.94,-4.12 1.865,-4.184 1.764,-4.27 1.589,-4.342 1.589,-4.342 c 0,0 0.14,-0.267 0.227,-0.427 0.149,-0.275 0.246,-0.444 0.387,-0.701 L 1.922,-5.575 c -0.046,0.005 -0.864,1.422 -0.815,1.781 0.008,0.086 0.071,0.143 0.152,0.135 L 1.656,-3.7 1.719,-3.089 0.986,-3.013 1.029,-2.599 3.757,-2.88 3.714,-3.296 3.406,-3.262 3.159,-5.67 C 3.305,-5.82 3.369,-6.03 3.34,-6.238 3.256,-6.712 2.834,-6.802 2.404,-6.746 1.681,-6.672 0.964,-5.665 0.968,-5.633 l 0.165,0.14 C 1.131,-5.505 1.726,-6.36 2.309,-6.431 2.62,-6.475 3.047,-6.352 3.074,-6.091 3.12,-5.646 2.359,-5.787 2.323,-6.122 m -2.307,-1.451 1.76,-0.91 -0.403,-2.536 -1.56,-0.019 0.203,3.465 z m -0.804,-3.512 -1.532,-0.291 -0.405,3.45 1.893,-0.592 0.044,-2.567 z m -0.63,8.327 0.067,-0.412 -0.309,-0.051 0.395,-2.42 -0.588,0.262 -0.082,0.507 c -0.147,-0.127 -0.263,-0.202 -0.46,-0.233 -0.913,-0.149 -1.116,0.807 -1.113,0.863 0,0 0.603,0.066 0.539,0.451 -0.022,0.141 -0.17,0.329 -0.17,0.329 l -0.635,-0.103 -0.067,0.41 2.423,0.397 z m -2.842,-0.481 0.114,-0.401 -0.301,-0.087 0.682,-2.355 -0.614,0.189 -0.292,1.005 -0.674,-0.193 0.105,-0.366 c 0.013,-0.045 0.024,-0.121 -0.032,-0.137 -0.149,-0.043 -0.815,0.327 -0.867,0.594 -0.008,0.066 0.016,0.15 0.094,0.172 l 1.251,0.362 -0.169,0.58 -1.542,-0.446 -0.115,0.4 2.36,0.683 z m -1.511,-6.664 0.909,-2.401 -1.35,-0.782 -1.54,3.099 1.981,0.084 z m -5.535,4.915 c 0.144,0.094 0.281,0.081 0.435,0.035 0.485,-0.162 1.108,-0.439 1.13,-0.45 l 0.403,0.262 0.227,-0.349 -0.263,-0.172 1.336,-2.057 -0.642,0.003 -0.571,0.879 -0.59,-0.384 0.208,-0.317 c 0.026,-0.041 0.057,-0.109 0.008,-0.141 -0.128,-0.084 -0.872,0.076 -1.002,0.317 -0.025,0.059 -0.027,0.148 0.039,0.192 l 1.093,0.709 -0.33,0.506 -1.345,-0.876 -0.226,0.351 1.478,0.961 -0.733,0.268 c -0.222,0.092 -0.634,-0.176 -0.742,-0.355 l -0.425,0.285 0.512,0.333 z m -0.352,-1.706 0.262,-0.327 -0.202,-0.16 0.725,-0.906 c 0.04,-0.049 0.098,-0.104 0.016,-0.184 -0.185,-0.161 -0.982,-0.109 -1.066,0.014 -0.039,0.051 -0.014,0.12 0.048,0.17 l 0.253,0.203 -0.333,0.417 -0.455,-0.364 -0.26,0.325 1.012,0.812 z m -2.999,-2.428 c 0.252,0.231 0.818,0.206 1.048,-0.105 0.081,-0.122 0.108,-0.336 0.119,-0.384 0,0 0.245,0.065 0.354,0.165 0.147,0.135 0.222,0.435 0.238,0.449 l -0.386,0.422 -0.256,-0.235 -0.454,0.149 1.053,0.964 0.281,-0.307 -0.227,-0.208 1.634,-1.785 -0.629,-0.11 -0.691,0.756 c 0,0 -0.105,-0.139 -0.184,-0.198 -0.128,-0.087 -0.314,-0.12 -0.384,-0.112 0,0 0.249,-0.054 0.39,-0.207 0.252,-0.276 0.275,-0.596 -0.071,-0.912 -0.49,-0.449 -1.613,0.087 -1.627,0.104 l 0.092,0.212 c 0.015,-0.027 0.742,-0.449 1.189,-0.04 0.354,0.324 0.024,0.754 -0.382,0.679 -0.06,-0.127 -0.135,-0.233 -0.225,-0.344 l -0.414,0.173 c 0.024,-0.01 0.501,0.458 0.277,0.702 -0.093,0.103 -0.253,0.093 -0.377,-0.02 -0.181,-0.165 -0.398,-0.485 -0.398,-0.503 l -0.401,0.186 c 0.007,0.006 0.206,0.29 0.431,0.509 m 0.417,-13.297 2.485,-0.394 0.032,-1.559 -3.413,0.183 0.896,1.77 z m -3.292,-11.92 1.254,0.502 -0.419,0.769 -1.252,-0.503 -0.224,0.413 2.796,1.119 0.224,-0.412 -1.06,-0.424 0.417,-0.769 1.06,0.424 0.223,-0.41 -2.796,-1.119 -0.223,0.41 z m 0.477,-0.775 2.617,1.404 0.985,-1.355 -0.462,-0.247 -0.71,0.975 -0.551,-0.295 0.654,-0.897 -0.463,-0.249 -0.654,0.897 -0.677,-0.363 0.74,-1.019 -0.461,-0.248 -1.018,1.397 z m 2.262,-2.825 0.401,0.448 -0.576,0.631 -0.609,-0.217 -0.344,0.377 2.988,1.02 0.374,-0.412 -1.881,-2.235 -0.353,0.388 z m 2.014,-1.888 2.014,1.989 -2.823,-1.256 -0.342,0.315 1.676,2.339 0.387,-0.355 -1.341,-1.709 0.005,-0.005 2.083,1.026 0.375,-0.346 -0.008,-0.003 1.401,-1.045 -0.357,-0.352 -1.012,0.755 -0.426,-0.421 0.931,-0.694 -0.359,-0.354 -0.931,0.695 -0.523,-0.519 1.056,-0.788 -0.357,-0.354 -1.449,1.082 z m 3.026,-2.036 0.458,2.048 -0.007,0.004 -1.292,-1.528 -0.396,0.247 1.813,2.143 0.448,-0.28 -0.45,-2 0.005,-10e-4 1.262,1.492 0.4,-0.249 -1.813,-2.143 -0.428,0.267 z m 3.738,0.626 c -0.016,-0.057 -0.033,-0.109 -0.056,-0.158 -0.022,-0.051 -0.046,-0.096 -0.071,-0.134 l -0.438,0.221 c 0.009,0.019 0.019,0.042 0.033,0.071 0.013,0.03 0.023,0.06 0.026,0.097 0.011,0.06 -0.002,0.125 -0.037,0.196 -0.034,0.07 -0.116,0.138 -0.242,0.2 -0.013,0.007 -0.026,0.013 -0.04,0.019 -0.014,0.005 -0.029,0.01 -0.043,0.013 -0.082,0.03 -0.168,0.039 -0.259,0.029 -0.09,-0.012 -0.164,-0.059 -0.223,-0.147 -0.044,-0.066 -0.062,-0.123 -0.051,-0.171 0.008,-0.045 0.029,-0.085 0.059,-0.118 0.01,-0.013 0.019,-0.024 0.03,-0.035 0.011,-0.012 0.021,-0.023 0.032,-0.029 l 0.445,-0.4 c 0.123,-0.115 0.213,-0.242 0.275,-0.383 0.06,-0.14 0.022,-0.315 -0.117,-0.52 -0.135,-0.201 -0.286,-0.33 -0.453,-0.386 -0.165,-0.059 -0.318,-0.079 -0.461,-0.065 -0.101,0.009 -0.192,0.03 -0.273,0.059 -0.081,0.028 -0.141,0.052 -0.18,0.071 -0.283,0.141 -0.457,0.294 -0.522,0.46 -0.065,0.165 -0.08,0.32 -0.043,0.463 0.016,0.057 0.036,0.113 0.061,0.167 0.026,0.052 0.053,0.098 0.08,0.139 l 0.001,0.002 0.44,-0.216 c -0.016,-0.025 -0.03,-0.051 -0.041,-0.078 -0.013,-0.029 -0.023,-0.057 -0.031,-0.087 -0.013,-0.068 -10e-4,-0.141 0.032,-0.22 0.033,-0.08 0.117,-0.151 0.254,-0.221 0.01,-0.005 0.021,-0.009 0.032,-0.016 0.011,-0.005 0.022,-0.009 0.033,-0.012 0.103,-0.045 0.208,-0.067 0.318,-0.066 0.11,0.002 0.201,0.056 0.273,0.165 0.057,0.083 0.064,0.159 0.023,0.229 -0.042,0.068 -0.105,0.141 -0.192,0.217 -0.006,0.006 -0.013,0.012 -0.019,0.018 -0.005,0.006 -0.011,0.012 -0.017,0.019 l -0.194,0.176 c -0.003,-0.002 -0.006,-0.002 -0.008,0 -0.002,0 -0.002,10e-4 0,0.003 -0.148,0.13 -0.266,0.268 -0.355,0.415 -0.091,0.146 -0.051,0.346 0.119,0.597 0.025,0.037 0.057,0.079 0.095,0.12 0.038,0.043 0.082,0.084 0.133,0.124 0.116,0.089 0.264,0.147 0.444,0.181 0.181,0.033 0.395,-0.013 0.642,-0.135 0.245,-0.121 0.395,-0.262 0.453,-0.422 0.057,-0.16 0.068,-0.311 0.033,-0.452 m 1.847,-2.829 -1.709,0.449 0.902,2.532 0.506,-0.133 -0.739,-2.073 1.204,-0.317 -0.164,-0.458 z m 0.32,-0.046 0.746,2.569 0.512,-0.11 -0.745,-2.569 -0.513,0.11 z m 1.712,0.281 c 0.128,-0.14 0.277,-0.223 0.448,-0.248 0.008,-0.002 0.013,-0.002 0.02,-0.003 l 0.016,0 c 0.028,-0.003 0.072,-0.003 0.13,0 0.06,0.003 0.12,0.024 0.185,0.055 0.069,0.034 0.136,0.086 0.205,0.157 0.068,0.072 0.125,0.173 0.172,0.305 l -0.583,0.061 0.063,0.444 1.049,-0.11 -0.202,-1.418 -0.349,0.036 -0.009,0.336 c -0.021,-0.018 -0.04,-0.04 -0.062,-0.06 -0.019,-0.02 -0.043,-0.041 -0.068,-0.06 -0.075,-0.06 -0.168,-0.114 -0.281,-0.157 -0.111,-0.044 -0.254,-0.057 -0.427,-0.04 -0.301,0.032 -0.553,0.173 -0.754,0.425 -0.204,0.253 -0.272,0.61 -0.205,1.069 0.052,0.361 0.195,0.673 0.435,0.938 0.238,0.263 0.569,0.373 0.992,0.325 0.294,-0.03 0.512,-0.119 0.662,-0.265 0.147,-0.146 0.242,-0.298 0.282,-0.455 0.014,-0.051 0.022,-0.1 0.027,-0.148 0.005,-0.047 0.006,-0.092 0.003,-0.135 l -0.525,0.059 c 0.003,0.021 0,0.049 -0.011,0.089 -0.011,0.038 -0.027,0.076 -0.049,0.119 -0.038,0.063 -0.091,0.124 -0.159,0.179 -0.068,0.055 -0.158,0.089 -0.269,0.102 -0.184,0.019 -0.362,-0.038 -0.529,-0.168 -0.168,-0.132 -0.275,-0.365 -0.323,-0.703 -0.049,-0.346 -0.011,-0.59 0.116,-0.729 m 2.266,8.084 1.532,0.023 -0.167,-3.469 -1.77,0.893 0.405,2.553 z m 1.25,-8.846 -0.026,1.186 -0.987,-0.014 0.025,-1.186 -0.53,-0.008 -0.054,2.646 0.528,0.009 0.021,-1.003 0.989,0.015 -0.022,1.004 0.53,0.006 0.054,-2.648 -0.528,-0.007 z m 2.523,0.267 -0.519,-0.086 -0.485,2.138 -0.75,-0.124 -0.105,0.459 2.02,0.337 0.105,-0.458 -0.75,-0.127 0.484,-2.139 z m -1.523,6.094 -0.068,2.584 1.52,0.293 0.45,-3.443 -1.902,0.566 z m 2.014,3.064 1.433,0.554 1.066,-3.326 -1.97,0.227 -0.529,2.545 z m 3.052,-8.231 c -0.08,-0.072 -0.162,-0.133 -0.246,-0.179 -0.084,-0.044 -0.156,-0.076 -0.216,-0.095 -0.058,-0.02 -0.136,-0.036 -0.234,-0.052 -0.097,-0.014 -0.205,-0.017 -0.322,-0.01 -0.189,0.024 -0.389,0.104 -0.601,0.241 -0.211,0.138 -0.397,0.387 -0.557,0.746 l -0.003,0.003 c -0.159,0.355 -0.213,0.645 -0.164,0.87 0.05,0.224 0.137,0.398 0.259,0.523 0.079,0.077 0.162,0.137 0.246,0.183 0.084,0.043 0.155,0.077 0.214,0.095 0.058,0.019 0.138,0.037 0.234,0.051 0.099,0.016 0.207,0.018 0.326,0.007 0.187,-0.023 0.386,-0.102 0.599,-0.241 0.213,-0.138 0.399,-0.386 0.558,-0.744 0.16,-0.357 0.216,-0.649 0.165,-0.874 -0.049,-0.226 -0.136,-0.398 -0.258,-0.524 m 2.507,1.148 c -0.085,-0.212 -0.27,-0.38 -0.552,-0.504 -0.052,-0.022 -0.109,-0.043 -0.172,-0.06 -0.063,-0.019 -0.132,-0.031 -0.208,-0.04 -0.077,-0.011 -0.157,-0.012 -0.244,-0.003 -0.086,0.01 -0.172,0.033 -0.259,0.073 -0.105,0.046 -0.198,0.11 -0.281,0.194 -0.081,0.085 -0.16,0.185 -0.236,0.301 l -0.931,1.567 0.484,0.211 0.908,-1.532 c 0.099,-0.167 0.21,-0.27 0.333,-0.311 0.121,-0.043 0.238,-0.04 0.348,0.01 0.165,0.071 0.257,0.161 0.281,0.272 0.023,0.108 -0.009,0.235 -0.093,0.376 l -0.924,1.558 0.482,0.212 0.912,-1.535 c 0.185,-0.312 0.236,-0.576 0.152,-0.789 m 1.992,0.974 c -0.055,0.041 -0.116,0.091 -0.177,0.149 -0.063,0.059 -0.138,0.143 -0.232,0.253 -0.124,0.147 -0.23,0.241 -0.314,0.282 -0.084,0.041 -0.206,0.014 -0.364,-0.084 l -0.44,-0.276 0.707,-0.836 -0.42,-0.261 -1.814,2.14 1.035,0.648 c 0.176,0.106 0.339,0.152 0.492,0.137 0.152,-0.014 0.282,-0.055 0.391,-0.12 0.063,-0.035 0.115,-0.073 0.162,-0.113 0.048,-0.041 0.086,-0.079 0.115,-0.112 0.098,-0.118 0.16,-0.24 0.185,-0.366 0.024,-0.129 0,-0.242 -0.07,-0.342 0.004,0 0.007,0 0.013,0.002 l 0.011,0 c 0.11,0.013 0.213,0.001 0.308,-0.037 0.095,-0.037 0.225,-0.152 0.388,-0.345 0.133,-0.157 0.227,-0.26 0.281,-0.311 0.054,-0.049 0.111,-0.07 0.172,-0.059 l 0.043,-0.054 -0.472,-0.295 z m 2.909,2.211 -0.314,0.2 c 0.006,-0.026 0.013,-0.052 0.019,-0.079 0.004,-0.026 0.009,-0.053 0.011,-0.083 0.011,-0.089 10e-4,-0.184 -0.027,-0.285 -0.029,-0.104 -0.105,-0.208 -0.228,-0.315 -0.215,-0.183 -0.5,-0.266 -0.856,-0.248 -0.355,0.017 -0.724,0.192 -1.106,0.52 -0.299,0.257 -0.495,0.546 -0.592,0.869 -0.096,0.325 0.008,0.615 0.313,0.872 0.207,0.181 0.425,0.275 0.65,0.286 0.224,0.011 0.422,-0.019 0.591,-0.089 0.054,-0.022 0.105,-0.047 0.153,-0.073 0.046,-0.027 0.088,-0.054 0.123,-0.081 l -0.377,-0.317 c -0.015,0.013 -0.045,0.028 -0.086,0.044 -0.041,0.018 -0.089,0.03 -0.141,0.041 -0.081,0.015 -0.168,0.015 -0.262,0.003 -0.092,-0.012 -0.179,-0.052 -0.258,-0.12 -0.132,-0.114 -0.189,-0.267 -0.17,-0.461 0.016,-0.194 0.165,-0.41 0.444,-0.651 0.287,-0.247 0.535,-0.369 0.741,-0.369 0.206,0 0.376,0.051 0.506,0.15 0.003,0.004 0.007,0.007 0.011,0.01 0.003,0.005 0.008,0.008 0.013,0.011 0.018,0.018 0.045,0.048 0.079,0.089 0.032,0.043 0.052,0.097 0.062,0.16 0.012,0.065 0.006,0.145 -0.018,0.234 -0.022,0.09 -0.081,0.191 -0.173,0.305 l -0.415,-0.358 -0.368,0.315 0.747,0.643 1.177,-1.009 -0.249,-0.214 z m 1.257,1.127 c -0.033,-0.037 -0.074,-0.077 -0.122,-0.117 -0.047,-0.041 -0.103,-0.078 -0.166,-0.114 -0.064,-0.04 -0.137,-0.071 -0.219,-0.095 -0.081,-0.024 -0.171,-0.035 -0.27,-0.032 -0.117,0.002 -0.233,0.025 -0.351,0.069 -0.117,0.045 -0.238,0.106 -0.366,0.182 l -1.636,1.058 0.326,0.371 1.599,-1.034 c 0.174,-0.111 0.327,-0.164 0.458,-0.156 0.132,0.008 0.235,0.056 0.31,0.14 0.109,0.125 0.145,0.242 0.112,0.35 -0.035,0.107 -0.127,0.208 -0.276,0.305 l -1.627,1.053 0.327,0.371 1.602,-1.037 c 0.326,-0.211 0.507,-0.428 0.539,-0.652 0.033,-0.222 -0.048,-0.442 -0.24,-0.662 m 0.866,1.074 -2.528,1.52 0.303,0.371 2.528,-1.519 -0.303,-0.372 z m 1.143,1.52 -0.547,-0.814 -2.67,1.323 0.558,0.831 c 0.162,0.234 0.368,0.363 0.619,0.385 0.25,0.021 0.496,-0.005 0.734,-0.076 0.081,-0.024 0.159,-0.051 0.231,-0.081 0.074,-0.03 0.143,-0.062 0.208,-0.094 0.067,-0.033 0.135,-0.071 0.206,-0.112 0.07,-0.04 0.14,-0.083 0.207,-0.13 0.215,-0.155 0.385,-0.341 0.51,-0.555 0.124,-0.213 0.106,-0.44 -0.056,-0.677 m 0.727,1.078 -2.818,1.075 0.756,1.459 0.499,-0.19 -0.546,-1.052 0.595,-0.225 0.499,0.968 0.499,-0.192 -0.502,-0.966 0.731,-0.279 0.569,1.097 0.5,-0.19 -0.782,-1.505 z"
           id="path1626"
           style="fill:#004f8e;fill-opacity:1;fill-rule:nonzero;stroke:none" /></g><g
         transform="translate(59.160541,49.120342)"
         id="g1628"><path
           d="M 0,0 C -0.011,0.005 -0.019,0.01 -0.027,0.014 -0.038,0.019 -0.044,0.022 -0.052,0.026 -0.341,0.168 -0.563,0.24 -0.717,0.238 -0.872,0.238 -0.991,0.209 -1.069,0.155 -1.096,0.135 -1.121,0.113 -1.142,0.089 -1.162,0.065 -1.181,0.041 -1.196,0.018 L -1.45,-0.358 0.3,-1.224 0.557,-0.842 C 0.661,-0.69 0.649,-0.539 0.514,-0.389 0.38,-0.238 0.208,-0.108 0,0"
           id="path1630"
           style="fill:#004f8e;fill-opacity:1;fill-rule:nonzero;stroke:none" /></g><g
         transform="translate(44.754941,53.115752)"
         id="g1632"><path
           d="m 0,0 -0.464,-0.136 0.416,-0.845 -0.112,-1.283 c 0.168,0.034 0.334,0.073 0.499,0.117 L 0.42,-0.923 0,0 z"
           id="path1634"
           style="fill:#004f8e;fill-opacity:1;fill-rule:nonzero;stroke:none" /></g><g
         transform="translate(45.503041,27.004952)"
         id="g1636"><path
           d="M 0,0 0.025,-0.523 C 0.031,-0.639 0.008,-0.731 -0.047,-0.798 -0.1,-0.864 -0.162,-0.904 -0.233,-0.915 -0.236,-0.919 -0.242,-0.922 -0.248,-0.923 l -0.022,0 c -0.003,0 -0.008,-0.002 -0.012,-0.002 l -0.015,0 c -0.068,0.003 -0.13,0.032 -0.185,0.083 -0.056,0.052 -0.086,0.121 -0.091,0.206 l -0.098,1.988 c -0.003,0.093 0.019,0.164 0.07,0.213 0.05,0.051 0.109,0.081 0.177,0.094 l 0.013,0 0.013,0 c 0.005,10e-4 0.008,10e-4 0.014,10e-4 0.004,0 0.009,0 0.013,0.002 0.065,-0.005 0.123,-0.027 0.177,-0.068 0.054,-0.04 0.081,-0.098 0.086,-0.173 L -0.084,0.937 0.82,0.988 0.804,1.313 C 0.786,1.69 0.666,1.962 0.445,2.131 0.227,2.303 -0.059,2.377 -0.411,2.358 -0.844,2.335 -1.142,2.214 -1.302,1.997 -1.464,1.778 -1.538,1.521 -1.525,1.224 l 0.085,-1.669 c 0.02,-0.432 0.131,-0.736 0.331,-0.914 0.198,-0.178 0.497,-0.254 0.893,-0.232 0.054,0.002 0.111,0.008 0.169,0.018 0.061,0.008 0.121,0.022 0.181,0.039 0.2,0.057 0.381,0.164 0.541,0.319 0.162,0.155 0.235,0.376 0.222,0.662 L 0.867,0.049 0,0 z"
           id="path1638"
           style="fill:#004f8e;fill-opacity:1;fill-rule:nonzero;stroke:none" /></g><g
         transform="translate(38.982241,78.818842)"
         id="g1640"><path
           d="M 0,0 C 0.357,-0.309 0.924,-0.06 1.069,0.365 L 0.915,1.313 0.22,1.201 C 0.522,0.882 0.581,0.095 0,0"
           id="path1642"
           style="fill:#004f8e;fill-opacity:1;fill-rule:nonzero;stroke:none" /></g><g
         transform="translate(52.955041,28.569442)"
         id="g1644"><path
           d="m 0,0 -0.831,-0.268 0.144,-0.501 c 0.034,-0.111 0.03,-0.206 -0.006,-0.286 -0.037,-0.078 -0.087,-0.131 -0.154,-0.16 -0.002,-0.006 -0.006,-0.008 -0.012,-0.011 -0.008,-0.001 -0.015,-0.005 -0.021,-0.006 -0.003,-0.002 -0.008,-0.002 -0.013,-0.003 -0.006,-0.003 -0.01,-0.003 -0.013,-0.005 -0.066,-0.014 -0.133,-0.003 -0.199,0.032 -0.065,0.036 -0.111,0.095 -0.135,0.177 l -0.55,1.903 c -0.026,0.089 -0.02,0.165 0.018,0.226 0.039,0.061 0.088,0.107 0.151,0.134 0.003,0 0.006,0.002 0.013,0.003 0.004,0.002 0.008,0.003 0.013,0.005 0.003,0.002 0.006,0.003 0.012,0.005 0.005,0.002 0.008,0.003 0.013,0.003 0.062,0.013 0.125,0.008 0.186,-0.019 0.061,-0.024 0.103,-0.073 0.123,-0.146 L -1.128,0.62 -0.26,0.901 -0.351,1.214 c -0.104,0.358 -0.282,0.592 -0.534,0.702 -0.252,0.107 -0.547,0.107 -0.883,0 C -2.184,1.781 -2.444,1.589 -2.552,1.335 -2.658,1.082 -2.671,0.814 -2.59,0.531 l 0.465,-1.6 c 0.119,-0.414 0.295,-0.68 0.53,-0.801 0.233,-0.12 0.539,-0.12 0.921,0.004 0.051,0.015 0.103,0.036 0.16,0.06 0.057,0.023 0.111,0.052 0.165,0.085 0.181,0.107 0.332,0.255 0.452,0.447 0.122,0.193 0.142,0.426 0.063,0.698 L 0,0 z"
           id="path1646"
           style="fill:#004f8e;fill-opacity:1;fill-rule:nonzero;stroke:none" /></g><g
         transform="translate(71.236941,60.820552)"
         id="g1648"><path
           d="M 0,0 C -0.419,15.711 -13.576,28.185 -29.285,27.766 -44.997,27.349 -57.47,14.192 -57.053,-1.518 -56.635,-17.231 -43.48,-29.705 -27.768,-29.285 -12.056,-28.867 0.418,-15.712 0,0 m -27.798,-28.136 c -15.079,-0.401 -27.703,11.569 -28.105,26.648 -0.402,15.078 11.57,27.703 26.648,28.104 15.078,0.402 27.704,-11.569 28.105,-26.646 0.401,-15.079 -11.569,-27.703 -26.648,-28.106"
           id="path1650"
           style="fill:#004f8e;fill-opacity:1;fill-rule:nonzero;stroke:none" /></g><g
         transform="translate(47.615941,26.485352)"
         id="g1652"><path
           d="M 0,0 -0.117,0.79 0.919,0.964 0.802,1.739 -0.234,1.564 -0.341,2.276 0.769,2.461 0.666,3.159 -1.286,2.831 -0.733,-0.875 1.221,-0.547 1.112,0.187 0,0 z"
           id="path1654"
           style="fill:#004f8e;fill-opacity:1;fill-rule:nonzero;stroke:none" /></g><g
         transform="translate(55.764441,74.024352)"
         id="g1656"><path
           d="M 0,0 C -0.052,-0.469 0.474,-0.794 0.906,-0.674 L 1.6,-0.008 1.114,0.499 C 1.021,0.07 0.408,-0.425 0,0"
           id="path1658"
           style="fill:#004f8e;fill-opacity:1;fill-rule:nonzero;stroke:none" /></g><g
         transform="translate(40.248741,59.193242)"
         id="g1660"><path
           d="m 0,0 1.055,-0.739 -1.304,-1.754 0.368,-0.271 1.31,1.763 1.059,-0.742 1.125,0.764 1.302,-1.78 0.369,0.269 -1.292,1.767 0.982,0.666 L 4.602,1.259 6.705,1.852 6.582,2.292 4.477,1.7 l -0.36,1.274 -1.401,0 0,2.201 -0.458,0 0,-2.201 -1.372,0 L 0.504,1.691 -1.602,2.352 -1.741,1.916 0.372,1.253 0,0 z m 1.179,2.544 2.641,0 L 4.523,0.065 2.488,-1.314 0.452,0.113 1.179,2.544 z"
           id="path1662"
           style="fill:#004f8e;fill-opacity:1;fill-rule:nonzero;stroke:none" /></g><g
         transform="translate(27.627241,46.764442)"
         id="g1664"><path
           d="M 0,0 0.396,-0.436 1.166,0.422 1.16,0.427 0,0 z"
           id="path1666"
           style="fill:#004f8e;fill-opacity:1;fill-rule:nonzero;stroke:none" /></g><g
         transform="translate(43.193641,66.336552)"
         id="g1668"><path
           d="M 0,0 0,-0.001 5.368,-3.966 5.376,-3.968 5.375,-3.966 0,0 z"
           id="path1670"
           style="fill:#004f8e;fill-opacity:1;fill-rule:nonzero;stroke:none" /></g><g
         transform="translate(44.336841,59.376352)"
         id="g1672"><path
           d="m 0,0 -0.552,1.951 -2.081,0 L -3.202,0.036 -1.6,-1.085 0,0 z m -2.25,1.391 1.311,0 0.349,-1.231 -1.01,-0.685 -1.01,0.707 0.36,1.209 z"
           id="path1674"
           style="fill:#004f8e;fill-opacity:1;fill-rule:nonzero;stroke:none" /></g><g
         transform="translate(31.331241,45.610142)"
         id="g1676"><path
           d="M 0,0 -0.007,-0.008 0.003,-0.003 0,0 z"
           id="path1678"
           style="fill:#004f8e;fill-opacity:1;fill-rule:nonzero;stroke:none" /></g><g
         transform="translate(53.198341,60.340352)"
         id="g1680"><path
           d="m 0,0 c -0.154,5.776 -4.991,10.362 -10.769,10.208 -5.775,-0.153 -10.36,-4.99 -10.206,-10.768 0.154,-5.776 4.991,-10.362 10.767,-10.206 C -4.433,-10.613 0.154,-5.775 0,0 m -7.208,-9.087 0,-0.004 -0.037,-0.012 c 0.013,0.005 0.024,0.011 0.037,0.016 l 0.127,1.232 -0.495,0.923 -0.463,-0.165 0.505,-0.877 -0.173,-1.284 c 0.009,0.003 0.02,0.004 0.03,0.008 l -0.03,-0.01 0,0.002 C -7.839,-9.3 -7.971,-9.338 -8.104,-9.372 l 0,-0.012 -0.501,-0.125 0.002,0.021 c -0.532,-0.11 -1.076,-0.183 -1.634,-0.197 -0.158,-0.005 -0.312,0.008 -0.469,0.011 l -0.005,-0.018 -0.425,0.027 c 0.143,-0.009 0.287,-0.006 0.43,-0.009 l 0.344,1.112 -0.318,1.04 -0.223,0.016 c 0.202,-0.013 0.403,-0.02 0.608,-0.016 3.988,0.106 7.155,3.446 7.05,7.436 -0.106,3.989 -3.446,7.156 -7.436,7.05 -3.989,-0.106 -7.156,-3.448 -7.049,-7.437 0.085,-3.214 2.272,-5.891 5.206,-6.756 l 0.258,-0.065 0,-0.001 c 0.367,-0.094 0.743,-0.16 1.128,-0.195 l -0.008,0 0.311,-1.052 -0.376,-1.113 c -0.458,0.037 -0.905,0.111 -1.345,0.212 l 0.233,1.123 0.057,1.025 c -0.087,0.022 -0.172,0.041 -0.258,0.066 l -0.201,0.051 -0.079,-1.051 -0.256,-1.099 c 0.114,-0.034 0.233,-0.056 0.351,-0.083 l -0.353,0.075 0.002,0.008 c -3.848,1.099 -6.722,4.597 -6.833,8.798 -0.138,5.182 3.974,9.519 9.155,9.657 5.181,0.138 9.518,-3.976 9.657,-9.156 0.109,-4.115 -2.467,-7.69 -6.127,-9.058 m -8.556,10.433 3.53,0.74 1.794,3.128 1.794,-3.128 3.53,-0.74 -2.423,-2.67 0.39,-3.587 -3.291,1.477 -3.29,-1.477 0.388,3.587 -2.422,2.67 z m 4.893,4.658 -1.856,-3.238 -3.63,-0.76 5.486,3.998 z m -5.481,-3.992 c 0.872,2.221 2.974,3.843 5.479,3.996 l -5.479,-3.996 z m 2.21,-3.597 -0.382,-3.522 c -1.34,1.121 -2.21,2.787 -2.259,4.66 -0.017,0.548 0.04,1.083 0.161,1.595 l 2.48,-2.733 z m 9.95,1.472 c 0.051,-1.95 -0.797,-3.725 -2.167,-4.917 l 1.909,5.752 -1.916,-5.751 -0.372,3.444 2.404,2.654 -0.002,-0.003 c 0.084,-0.381 0.133,-0.774 0.144,-1.179 m -0.436,2.137 -0.008,0.006 -3.517,0.736 -1.851,3.229 -0.008,0.006 C -7.574,5.817 -5.502,4.23 -4.631,2.03 l 0.003,-10e-4 -10e-4,0 c 0,-0.002 10e-4,-0.004 10e-4,-0.005 m -5.812,-6.298 3.161,-1.419 0.001,-0.002 c -0.894,-0.533 -1.932,-0.85 -3.043,-0.88 -1.213,-0.034 -2.358,0.284 -3.337,0.856 l 3.218,1.445 z"
           id="path1682"
           style="fill:#004f8e;fill-opacity:1;fill-rule:nonzero;stroke:none" /></g><g
         transform="translate(44.201941,79.616842)"
         id="g1684"><path
           d="M 0,0 C 0.022,-0.013 0.203,-0.086 0.328,-0.099 0.561,-0.111 0.696,0.003 0.696,0.003 L 0.758,0.615 0.06,0.687 C 0.037,0.468 0.13,0.207 0,0"
           id="path1686"
           style="fill:#004f8e;fill-opacity:1;fill-rule:nonzero;stroke:none" /></g><g
         transform="translate(55.085041,30.704442)"
         id="g1688"><path
           d="M 0,0 C -0.111,0.32 -0.279,0.52 -0.503,0.593 -0.726,0.666 -0.95,0.679 -1.175,0.628 -1.216,0.615 -1.259,0.602 -1.3,0.592 -1.344,0.579 -1.386,0.565 -1.425,0.549 -1.73,0.431 -1.963,0.26 -2.126,0.032 -2.288,-0.198 -2.311,-0.489 -2.188,-0.842 l 0.541,-1.572 c 0.101,-0.296 0.267,-0.531 0.497,-0.704 0.23,-0.174 0.549,-0.183 0.957,-0.025 0.399,0.153 0.652,0.366 0.758,0.639 0.105,0.272 0.097,0.582 -0.024,0.932 L 0,0 z m -0.22,-2.328 c -0.04,-0.07 -0.092,-0.121 -0.157,-0.149 -0.003,-0.002 -0.006,-0.004 -0.008,-0.004 -0.001,0 -0.005,-0.001 -0.008,-0.001 -0.07,-0.029 -0.143,-0.027 -0.219,0.001 -0.076,0.029 -0.132,0.093 -0.165,0.191 l -0.618,1.795 c -0.035,0.102 -0.032,0.189 0.009,0.262 0.042,0.071 0.097,0.12 0.167,0.149 0.003,0 0.006,0.001 0.007,0.001 0.004,0.002 0.006,0.003 0.009,0.003 0.068,0.023 0.138,0.021 0.212,-0.007 0.074,-0.029 0.127,-0.091 0.162,-0.191 l 0.618,-1.795 c 0.034,-0.098 0.03,-0.182 -0.009,-0.255"
           id="path1690"
           style="fill:#004f8e;fill-opacity:1;fill-rule:nonzero;stroke:none" /></g><g
         transform="translate(48.748141,61.061552)"
         id="g1692"><path
           d="M 0,0 0.114,0.344 0,0 z"
           id="path1694"
           style="fill:#004f8e;fill-opacity:1;fill-rule:nonzero;stroke:none" /></g><g
         transform="translate(32.169737,77.919752)"
         id="g1696"><path
           d="M 0,0 0.178,0.116 0,0 z"
           id="path1698"
           style="fill:#004f8e;fill-opacity:1;fill-rule:nonzero;stroke:none" /></g><g
         transform="translate(52.743841,43.699042)"
         id="g1700"><path
           d="M 0,0 C -0.013,0.014 -0.029,0.029 -0.048,0.041 -0.1,0.083 -0.163,0.11 -0.241,0.122 -0.318,0.135 -0.403,0.113 -0.498,0.053 l -0.532,-0.332 0.483,-0.571 0.501,0.314 c 0.113,0.067 0.176,0.139 0.193,0.217 0.018,0.08 -0.02,0.172 -0.109,0.278 C 0.027,-0.027 0.014,-0.012 0,0"
           id="path1702"
           style="fill:#004f8e;fill-opacity:1;fill-rule:nonzero;stroke:none" /></g><g
         transform="translate(48.729741,41.818242)"
         id="g1704"><path
           d="M 0,0 C -0.151,0.095 -0.289,0.143 -0.419,0.143 -0.455,0.143 -0.492,0.141 -0.528,0.135 -0.563,0.128 -0.596,0.119 -0.625,0.111 -0.653,0.102 -0.684,0.087 -0.715,0.073 -0.747,0.057 -0.777,0.038 -0.803,0.016 -0.9,-0.057 -0.966,-0.173 -1.002,-0.33 -1.041,-0.487 -0.999,-0.7 -0.88,-0.966 l -0.002,0.005 c 0.121,-0.269 0.255,-0.452 0.406,-0.547 0.149,-0.096 0.289,-0.143 0.417,-0.143 0.038,-0.002 0.075,0.002 0.109,0.008 0.037,0.006 0.069,0.014 0.099,0.026 0.029,0.009 0.06,0.021 0.092,0.037 0.03,0.015 0.059,0.033 0.085,0.056 0.097,0.075 0.164,0.189 0.201,0.346 0.037,0.157 -0.006,0.369 -0.123,0.636 C 0.285,-0.276 0.151,-0.095 0,0"
           id="path1706"
           style="fill:#004f8e;fill-opacity:1;fill-rule:nonzero;stroke:none" /></g><g
         transform="translate(60.608841,34.805042)"
         id="g1708"><path
           d="m 0,0 1.427,-3.543 0.688,0.53 -0.322,0.672 0.52,0.396 0.502,-0.532 0.704,0.54 L 0.788,0.606 0,0 z M 1.475,-1.743 0.74,-0.254 1.841,-1.462 1.475,-1.743 z"
           id="path1710"
           style="fill:#004f8e;fill-opacity:1;fill-rule:nonzero;stroke:none" /></g><g
         transform="translate(23.939841,35.501542)"
         id="g1712"><path
           d="m 0,0 -2.747,-2.53 0.69,-0.53 0.504,0.533 0.519,-0.398 -0.324,-0.671 0.703,-0.539 1.443,3.529 L 0,0 z m -0.747,-2.303 -0.366,0.281 1.115,1.199 -0.749,-1.48 z"
           id="path1714"
           style="fill:#004f8e;fill-opacity:1;fill-rule:nonzero;stroke:none" /></g><g
         transform="translate(68.296241,42.564942)"
         id="g1716"><path
           d="M 0,0 2.909,-2.152 3.4,-1.41 0.493,0.743 0,0 z"
           id="path1718"
           style="fill:#004f8e;fill-opacity:1;fill-rule:nonzero;stroke:none" /></g><g
         transform="translate(56.797441,32.540442)"
         id="g1720"><path
           d="m 0,0 0.498,-2.235 -1.27,1.854 -1.087,-0.536 1.501,-3.4 0.739,0.363 -1.258,2.571 1.706,-2.349 0.536,0.264 -0.604,2.892 1.087,-2.653 0.707,0.347 L 1.053,0.52 0,0 z"
           id="path1722"
           style="fill:#004f8e;fill-opacity:1;fill-rule:nonzero;stroke:none" /></g><g
         transform="translate(28.748337,32.493952)"
         id="g1724"><path
           d="m 0,0 -1.501,-3.4 0.778,-0.384 1.5,3.402 L 0,0 z"
           id="path1726"
           style="fill:#004f8e;fill-opacity:1;fill-rule:nonzero;stroke:none" /></g><g
         transform="translate(31.089441,31.419042)"
         id="g1728"><path
           d="m 0,0 -0.664,-2.055 0.141,2.279 -0.796,0.339 -1.329,-3.478 0.76,-0.327 0.637,1.983 -0.112,-2.205 0.805,-0.343 L 0.771,-0.33 0,0 z"
           id="path1730"
           style="fill:#004f8e;fill-opacity:1;fill-rule:nonzero;stroke:none" /></g><g
         transform="translate(22.781337,35.413942)"
         id="g1732"><path
           d="M 0,0 0.433,0.587 -1.272,1.995 -1.705,1.41 -1.182,0.975 -2.932,-1.395 -2.247,-1.96 -0.496,0.411 0,0 z"
           id="path1734"
           style="fill:#004f8e;fill-opacity:1;fill-rule:nonzero;stroke:none" /></g><g
         transform="translate(14.814841,40.263152)"
         id="g1736"><path
           d="M 0,0 0.687,0.555 C 0.779,0.625 0.835,0.714 0.853,0.823 0.871,0.933 0.858,1.057 0.812,1.191 0.969,1.093 1.128,1.058 1.289,1.088 1.451,1.12 1.626,1.202 1.811,1.34 2.06,1.548 2.19,1.772 2.2,2.013 2.209,2.254 2.13,2.503 1.96,2.758 L 1.247,3.832 -1.66,1.68 -1.169,0.937 -0.033,1.778 0.081,1.607 C 0.154,1.496 0.181,1.404 0.16,1.33 0.14,1.255 0.082,1.182 -0.012,1.11 L -0.62,0.662 C -0.728,0.582 -0.788,0.519 -0.796,0.47 -0.806,0.422 -0.779,0.351 -0.715,0.255 l 0.434,-0.656 0.091,0.068 c -0.021,0.031 -0.021,0.075 0,0.13 C -0.171,-0.147 -0.108,-0.08 0,0 M 1.256,2.731 C 1.334,2.614 1.385,2.506 1.409,2.408 1.432,2.308 1.37,2.181 1.221,2.025 L 1.139,1.964 C 1.013,1.872 0.902,1.834 0.809,1.854 0.712,1.873 0.642,1.918 0.596,1.987 L 0.482,2.159 1.256,2.731 z"
           id="path1738"
           style="fill:#004f8e;fill-opacity:1;fill-rule:nonzero;stroke:none" /></g><g
         transform="translate(17.604737,41.854242)"
         id="g1740"><path
           d="M 0,0 -2.797,-2.311 -2.269,-3.026 0.528,-0.715 0,0 z"
           id="path1742"
           style="fill:#004f8e;fill-opacity:1;fill-rule:nonzero;stroke:none" /></g><g
         transform="translate(32.921737,29.184542)"
         id="g1744"><path
           d="M 0,0 C -0.039,0.045 -0.077,0.087 -0.115,0.128 -0.154,0.17 -0.19,0.213 -0.221,0.255 -0.309,0.354 -0.377,0.45 -0.43,0.547 -0.482,0.645 -0.491,0.75 -0.458,0.861 c 0.021,0.074 0.063,0.13 0.127,0.165 0.063,0.034 0.127,0.044 0.184,0.029 0.005,-0.002 0.006,-0.002 0.008,-0.002 0.001,-0.002 0.005,-0.002 0.008,-0.003 0.011,-0.003 0.02,-0.008 0.03,-0.013 0.009,-0.006 0.02,-0.011 0.033,-0.02 C -0.016,0.98 0.024,0.922 0.053,0.837 0.08,0.753 0.076,0.648 0.04,0.522 L 0.01,0.42 0.753,0.18 0.776,0.255 C 0.887,0.636 0.863,0.948 0.705,1.193 0.547,1.435 0.33,1.602 0.054,1.691 -0.22,1.779 -0.472,1.767 -0.699,1.648 -0.926,1.532 -1.085,1.372 -1.178,1.171 -1.183,1.151 -1.189,1.134 -1.196,1.117 -1.203,1.1 -1.208,1.082 -1.213,1.064 -1.216,1.06 -1.218,1.056 -1.219,1.055 -1.223,1.051 -1.224,1.048 -1.226,1.043 -1.227,1.037 -1.23,1.031 -1.232,1.029 -1.235,1.026 -1.237,1.021 -1.239,1.018 -1.319,0.737 -1.316,0.495 -1.227,0.284 c 0.087,-0.208 0.198,-0.395 0.328,-0.56 0.04,-0.055 0.081,-0.108 0.122,-0.157 0.042,-0.048 0.081,-0.098 0.118,-0.149 0.079,-0.1 0.141,-0.198 0.185,-0.295 0.044,-0.099 0.051,-0.199 0.021,-0.303 -0.029,-0.101 -0.076,-0.173 -0.143,-0.215 -0.065,-0.044 -0.132,-0.063 -0.197,-0.057 -0.009,-0.002 -0.017,0 -0.025,0.003 -0.008,0.001 -0.016,0.004 -0.022,0.006 -0.005,0.001 -0.006,0.003 -0.008,0.003 -0.001,10e-4 -0.005,10e-4 -0.008,0.003 -0.074,0.025 -0.128,0.092 -0.167,0.193 -0.038,0.104 -0.033,0.235 0.015,0.397 0.003,0.011 0.006,0.024 0.013,0.038 0.006,0.013 0.014,0.027 0.02,0.04 0.001,0.006 0.004,0.016 0.006,0.024 0.003,0.009 0.008,0.017 0.015,0.022 0.001,0.008 0.003,0.016 0.004,0.023 0.002,0.007 0.005,0.013 0.007,0.021 l -0.744,0.24 c -0.003,-0.01 -0.008,-0.023 -0.011,-0.037 -0.005,-0.016 -0.01,-0.027 -0.016,-0.036 -0.003,-0.008 -0.003,-0.014 -0.006,-0.021 -0.002,-0.008 -0.005,-0.014 -0.007,-0.022 -0.004,-0.017 -0.011,-0.037 -0.017,-0.054 -0.008,-0.017 -0.015,-0.035 -0.019,-0.052 -0.099,-0.343 -0.097,-0.63 0.003,-0.868 0.101,-0.238 0.293,-0.41 0.576,-0.522 l 0.109,-0.028 c 0.286,-0.094 0.558,-0.095 0.82,-0.01 0.26,0.087 0.452,0.343 0.574,0.766 l 0.027,0.091 C 0.417,-0.949 0.408,-0.709 0.323,-0.514 0.235,-0.319 0.129,-0.147 0,0"
           id="path1746"
           style="fill:#004f8e;fill-opacity:1;fill-rule:nonzero;stroke:none" /></g><g
         transform="translate(20.744937,38.213142)"
         id="g1748"><path
           d="m 0,0 -1.345,-1.643 0.939,2.059 -0.617,0.627 -2.466,-2.697 0.59,-0.603 1.294,1.585 -0.886,-2.001 0.623,-0.637 2.466,2.7 L 0,0 z"
           id="path1750"
           style="fill:#004f8e;fill-opacity:1;fill-rule:nonzero;stroke:none" /></g><g
         transform="translate(16.731641,38.274342)"
         id="g1752"><path
           d="M 0,0 0.572,0.525 1.261,-0.312 1.819,0.201 1.131,1.039 1.645,1.513 2.384,0.615 2.886,1.077 1.589,2.655 -1.091,0.192 0.208,-1.385 0.737,-0.898 0,0 z"
           id="path1754"
           style="fill:#004f8e;fill-opacity:1;fill-rule:nonzero;stroke:none" /></g><g
         transform="translate(25.289737,34.457242)"
         id="g1756"><path
           d="m 0,0 -1.774,-3.248 1.614,-0.987 0.352,0.643 -0.877,0.536 1.423,2.607 L 0,0 z"
           id="path1758"
           style="fill:#004f8e;fill-opacity:1;fill-rule:nonzero;stroke:none" /></g><g
         transform="translate(49.151541,79.534952)"
         id="g1760"><path
           d="m 0,0 c -0.127,0.054 -0.224,-0.016 -0.27,-0.124 -0.093,-0.22 0.081,-0.567 0.113,-0.581 C 0.131,-0.655 0.326,-0.138 0,0"
           id="path1762"
           style="fill:#004f8e;fill-opacity:1;fill-rule:nonzero;stroke:none" /></g><g
         transform="translate(63.953741,37.484042)"
         id="g1764"><path
           d="m 0,0 -0.003,0.003 -0.645,-0.552 1.377,-1.613 -1.817,1.237 -0.667,-0.57 2.234,-2.917 0.638,0.546 -1.332,1.55 1.771,-1.173 0.676,0.577 -2.198,2.869 -0.053,0.022 L 0,0 z"
           id="path1766"
           style="fill:#004f8e;fill-opacity:1;fill-rule:nonzero;stroke:none" /></g><g
         transform="translate(42.781541,29.195552)"
         id="g1768"><path
           d="m 0,0 0.147,-2.166 -0.712,2.155 -0.858,-0.014 0.062,-3.752 0.82,0.015 -0.146,2.087 0.712,-2.077 0.868,0.015 L 0.831,0.016 0,0 z"
           id="path1770"
           style="fill:#004f8e;fill-opacity:1;fill-rule:nonzero;stroke:none" /></g><g
         transform="translate(59.912441,33.993752)"
         id="g1772"><path
           d="m 0,0 c -0.243,0.07 -0.579,-0.032 -1.009,-0.306 l -0.872,-0.553 1.829,-3.217 0.735,0.466 -0.713,1.256 c 0.018,0.013 0.036,0.023 0.055,0.034 0.02,0.009 0.038,0.02 0.056,0.031 0.016,0.012 0.033,0.021 0.052,0.03 0.02,0.01 0.038,0.021 0.057,0.032 0.273,0.175 0.476,0.387 0.607,0.636 0.132,0.251 0.08,0.585 -0.159,1.004 C 0.455,-0.265 0.243,-0.068 0,0 m -0.355,-1.783 -0.466,0.82 0.127,0.083 c 0.107,0.066 0.205,0.1 0.297,0.095 0.093,-0.004 0.168,-0.061 0.232,-0.173 0.1,-0.174 0.149,-0.319 0.149,-0.436 0,-0.116 -0.113,-0.246 -0.339,-0.389"
           id="path1774"
           style="fill:#004f8e;fill-opacity:1;fill-rule:nonzero;stroke:none" /></g><g
         transform="translate(35.555441,30.001152)"
         id="g1776"><path
           d="m 0,0 -0.644,-2.728 c -0.024,-0.106 -0.068,-0.18 -0.135,-0.225 -0.064,-0.044 -0.129,-0.062 -0.193,-0.054 -0.005,-0.002 -0.011,-0.003 -0.018,-0.002 -0.006,0.003 -0.014,0.005 -0.02,0.007 -0.003,10e-4 -0.006,10e-4 -0.008,10e-4 -0.002,0.002 -0.005,0.002 -0.008,0.004 -0.06,0.018 -0.111,0.063 -0.149,0.131 -0.04,0.068 -0.048,0.149 -0.026,0.244 l 0.654,2.767 -0.833,0.22 -0.634,-2.692 c -0.086,-0.36 -0.049,-0.646 0.109,-0.857 0.16,-0.213 0.432,-0.37 0.817,-0.472 0.325,-0.085 0.601,-0.072 0.828,0.039 0.227,0.109 0.394,0.383 0.496,0.821 L 0.844,-0.222 0,0 z"
           id="path1778"
           style="fill:#004f8e;fill-opacity:1;fill-rule:nonzero;stroke:none" /></g><g
         transform="translate(69.998541,45.285842)"
         id="g1780"><path
           d="m 0,0 1.645,-1.498 -2.059,0.71 -0.581,-1.109 3.104,-1.818 0.396,0.753 L 0.06,-1.665 2.745,-2.504 3.032,-1.957 0.936,0.007 3.29,-1.463 3.668,-0.745 0.563,1.074 0,0 z"
           id="path1782"
           style="fill:#004f8e;fill-opacity:1;fill-rule:nonzero;stroke:none" /></g><g
         transform="translate(38.453041,27.894752)"
         id="g1784"><path
           d="M 0,0 C 0.09,0.144 0.156,0.336 0.19,0.572 0.222,0.905 0.16,1.159 0.001,1.334 -0.154,1.509 -0.379,1.621 -0.671,1.67 l -1.225,0.205 -0.556,-3.707 0.847,-0.141 0.217,1.447 0.195,-0.034 c 0.126,-0.021 0.208,-0.063 0.244,-0.131 0.037,-0.067 0.047,-0.161 0.027,-0.285 l -0.114,-0.772 c -0.022,-0.138 -0.019,-0.226 0.008,-0.268 0.026,-0.039 0.094,-0.069 0.202,-0.087 l 0.748,-0.126 0.018,0.118 c -0.035,0.005 -0.065,0.035 -0.089,0.089 -0.025,0.052 -0.027,0.149 -0.006,0.285 l 0.098,0.909 c 0.019,0.117 -0.005,0.222 -0.067,0.312 -0.061,0.091 -0.155,0.165 -0.279,0.224 C -0.227,-0.241 -0.092,-0.144 0,0 M -0.701,0.495 C -0.725,0.335 -0.775,0.225 -0.855,0.165 -0.934,0.108 -1.015,0.084 -1.094,0.097 l -0.195,0.033 0.147,0.985 c 0.135,-0.022 0.243,-0.059 0.327,-0.109 0.084,-0.05 0.127,-0.185 0.13,-0.407 L -0.701,0.495 z"
           id="path1786"
           style="fill:#004f8e;fill-opacity:1;fill-rule:nonzero;stroke:none" /></g><g
         transform="translate(69.804141,39.695342)"
         id="g1788"><path
           d="M 0,0 -2.242,1.853 -2.767,1.142 0.03,-1.169 1.179,0.385 0.624,0.844 0,0 z"
           id="path1790"
           style="fill:#004f8e;fill-opacity:1;fill-rule:nonzero;stroke:none" /></g><g
         transform="translate(65.793741,39.360952)"
         id="g1792"><path
           d="m 0,0 -0.594,-0.605 0.452,-1.178 -1.1,0.516 -0.597,-0.61 0.033,-0.044 1.938,-0.85 1.091,-1.195 0.621,0.633 L 0.752,-2.138 0,0 z"
           id="path1794"
           style="fill:#004f8e;fill-opacity:1;fill-rule:nonzero;stroke:none" /></g><g
         transform="translate(39.685741,29.339542)"
         id="g1796"><path
           d="m 0,0 -1.181,-3.641 0.848,-0.093 0.184,0.726 0.636,-0.07 L 0.525,-3.83 1.39,-3.926 0.971,-0.107 0,0 z m -0.006,-2.337 0.396,1.625 0.054,-1.676 -0.45,0.051 z"
           id="path1798"
           style="fill:#004f8e;fill-opacity:1;fill-rule:nonzero;stroke:none" /></g><g
         transform="translate(105.87184,56.837042)"
         id="g1800"><path
           d="m 0,0 c -2.334,0 -4.444,0.502 -6.331,1.505 -1.887,1.004 -3.376,2.405 -4.467,4.205 -1.091,1.8 -1.636,3.867 -1.636,6.201 0,2.334 0.545,4.406 1.636,6.217 1.091,1.81 2.58,3.218 4.467,4.221 1.887,1.003 3.997,1.505 6.331,1.505 2.313,0 4.412,-0.502 6.299,-1.505 1.887,-1.003 3.376,-2.411 4.467,-4.221 1.09,-1.811 1.636,-3.883 1.636,-6.217 C 12.402,9.577 11.856,7.51 10.766,5.71 9.675,3.91 8.186,2.509 6.299,1.505 4.412,0.502 2.313,0 0,0 m 0,7.297 c 1.309,0 2.389,0.414 3.24,1.243 0.85,0.829 1.276,1.953 1.276,3.371 0,1.418 -0.426,2.541 -1.276,3.37 -0.851,0.829 -1.931,1.244 -3.24,1.244 -1.331,0 -2.421,-0.415 -3.272,-1.244 -0.851,-0.829 -1.276,-1.952 -1.276,-3.37 0,-1.418 0.431,-2.542 1.293,-3.371 C -2.394,7.711 -1.309,7.297 0,7.297 m 14.037,8.9 7.101,0 0,-1.407 c 0.611,0.568 1.44,1.026 2.487,1.375 1.047,0.349 2.17,0.523 3.37,0.523 l 0,-5.693 c -1.287,0 -2.448,-0.169 -3.485,-0.508 C 22.474,10.149 21.771,9.675 21.4,9.064 l 0,-8.573 -7.363,0 0,15.706 z m 17.736,1.44 c -1.091,0 -1.996,0.355 -2.716,1.064 -0.72,0.708 -1.08,1.597 -1.08,2.666 0,1.047 0.365,1.931 1.096,2.651 0.731,0.72 1.631,1.079 2.7,1.079 1.047,0 1.941,-0.359 2.683,-1.079 0.742,-0.72 1.112,-1.604 1.112,-2.651 0,-1.069 -0.365,-1.958 -1.096,-2.666 -0.731,-0.709 -1.631,-1.064 -2.699,-1.064 m -3.665,-1.44 7.362,0 0,-15.706 -7.362,0 0,15.706 z M 47.446,0 c -3.228,0 -5.742,0.72 -7.542,2.16 -1.8,1.439 -2.7,3.479 -2.7,6.119 0,2.596 0.813,4.646 2.438,6.151 1.625,1.506 3.965,2.258 7.019,2.258 1.941,0 3.605,-0.36 4.99,-1.08 1.385,-0.72 2.432,-1.701 3.141,-2.945 0.709,-1.243 1.064,-2.639 1.064,-4.188 l 0,-2.127 -11.649,0 c 0.632,-1.134 2.061,-1.701 4.286,-1.701 1.025,0 2.1,0.082 3.223,0.245 1.124,0.164 2.078,0.398 2.863,0.704 l 0,-4.418 C 53.707,0.829 52.633,0.545 51.356,0.327 50.08,0.109 48.777,0 47.446,0 m 1.473,10.373 c -0.262,1.091 -1.058,1.636 -2.389,1.636 -1.287,0 -2.061,-0.545 -2.323,-1.636 l 4.712,0 z m 8.572,5.824 7.101,0 0,-1.309 c 0.654,0.568 1.418,1.009 2.291,1.326 0.872,0.316 1.788,0.474 2.748,0.474 2.291,0 3.965,-0.572 5.023,-1.718 1.058,-1.145 1.587,-2.732 1.587,-4.761 l 0,-9.718 -7.362,0 0,8.639 c 0,0.61 -0.126,1.074 -0.377,1.39 -0.251,0.316 -0.66,0.475 -1.227,0.475 -1.069,0 -1.876,-0.491 -2.421,-1.473 l 0,-9.031 -7.363,0 0,15.706 z M 85.665,0 C 83.527,0 81.913,0.6 80.822,1.8 79.731,3 79.186,4.603 79.186,6.61 l 0,4.744 -2.127,0 0,4.843 2.127,0 0,4.712 7.362,0 0,-4.712 3.403,0 0,-4.843 -3.403,0 0,-3.664 c 0,-0.72 0.131,-1.233 0.393,-1.538 0.262,-0.306 0.709,-0.458 1.342,-0.458 0.807,0 1.581,0.229 2.323,0.687 l 0,-5.432 C 89.929,0.622 89.221,0.382 88.479,0.229 87.737,0.077 86.799,0 85.665,0 m 12.008,0 c -2.05,0 -3.686,0.453 -4.908,1.358 -1.222,0.906 -1.832,2.231 -1.832,3.976 0,1.767 0.594,3.108 1.783,4.025 1.189,0.916 2.951,1.374 5.285,1.374 0.698,0 1.461,-0.082 2.29,-0.246 0.829,-0.163 1.516,-0.354 2.062,-0.572 l 0,0.261 c 0,0.568 -0.36,1.015 -1.08,1.342 -0.72,0.327 -1.669,0.491 -2.847,0.491 -1.898,0 -3.632,-0.393 -5.203,-1.178 l 0,4.679 c 0.72,0.349 1.669,0.633 2.847,0.851 1.178,0.218 2.476,0.327 3.894,0.327 3.141,0 5.552,-0.578 7.231,-1.734 1.68,-1.156 2.52,-2.793 2.52,-4.908 l 0,-9.555 -6.937,0 0,1.145 C 102.276,1.178 101.562,0.791 100.635,0.475 99.708,0.158 98.721,0 97.673,0 m 2.356,4.057 c 0.458,0 0.9,0.088 1.325,0.262 0.426,0.175 0.758,0.393 0.999,0.655 l 0,1.047 c -0.72,0.415 -1.495,0.622 -2.324,0.622 -0.458,0 -0.818,-0.121 -1.079,-0.36 -0.262,-0.24 -0.393,-0.557 -0.393,-0.949 0,-0.371 0.125,-0.676 0.376,-0.916 0.251,-0.24 0.616,-0.361 1.096,-0.361 m 11.813,20.615 7.362,0 0,-24.181 -7.362,0 0,24.181 z"
           id="path1802"
           style="fill:#f26322;fill-opacity:1;fill-rule:nonzero;stroke:none" /></g><path
         d="m 94.091741,52.887132 7.754989,0 0,-22.872 -7.754989,0 0,22.872 z m 10.045989,-7.166 7.1,0 0,-1.308 c 0.655,0.567 1.419,1.009 2.291,1.325 0.873,0.316 1.789,0.474 2.749,0.474 2.29,0 3.964,-0.572 5.022,-1.717 1.058,-1.146 1.587,-2.733 1.587,-4.761 l 0,-9.719 -7.362,0 0,8.639 c 0,0.61 -0.125,1.074 -0.376,1.391 -0.251,0.316 -0.66,0.474 -1.227,0.474 -1.069,0 -1.876,-0.491 -2.422,-1.473 l 0,-9.031 -7.362,0 0,15.706 z m 28.271,-16.197 c -1.374,0 -2.797,0.12 -4.27,0.36 -1.472,0.24 -2.645,0.589 -3.517,1.047 l 0,4.974 c 0.916,-0.523 2.039,-0.97 3.37,-1.342 1.331,-0.37 2.52,-0.556 3.567,-0.556 0.501,0 0.861,0.022 1.079,0.066 0.219,0.043 0.328,0.142 0.328,0.294 0,0.109 -0.099,0.196 -0.295,0.262 -0.196,0.065 -0.458,0.131 -0.785,0.196 -0.785,0.153 -1.484,0.317 -2.094,0.491 -1.985,0.611 -3.387,1.314 -4.205,2.111 -0.818,0.796 -1.227,1.925 -1.227,3.386 0,1.833 0.72,3.191 2.159,4.074 1.44,0.884 3.425,1.325 5.956,1.325 1.178,0 2.481,-0.131 3.91,-0.392 1.429,-0.262 2.481,-0.6 3.158,-1.015 l 0,-4.973 c -0.655,0.458 -1.582,0.856 -2.782,1.194 -1.2,0.338 -2.268,0.507 -3.206,0.507 -0.437,0 -0.797,-0.033 -1.08,-0.098 -0.284,-0.065 -0.426,-0.153 -0.426,-0.262 0,-0.109 0.12,-0.207 0.36,-0.294 0.24,-0.088 0.622,-0.175 1.146,-0.262 1.025,-0.196 1.603,-0.316 1.734,-0.36 1.44,-0.371 2.547,-0.802 3.321,-1.292 0.774,-0.491 1.309,-1.064 1.603,-1.718 0.295,-0.655 0.442,-1.484 0.442,-2.487 0,-1.593 -0.709,-2.863 -2.127,-3.812 -1.418,-0.949 -3.457,-1.424 -6.119,-1.424 m 16.328,0 c -2.203,0 -3.855,0.622 -4.957,1.865 -1.102,1.244 -1.652,2.891 -1.652,4.942 l 0,9.39 7.362,0 0,-8.474 c 0,-1.353 0.578,-2.029 1.734,-2.029 1.047,0 1.811,0.491 2.291,1.473 l 0,9.03 7.362,0 0,-15.706 -7.1,0 0,1.309 c -0.655,-0.567 -1.419,-1.009 -2.291,-1.325 -0.873,-0.317 -1.789,-0.475 -2.749,-0.475 m 14.431,16.197 7.1,0 0,-1.406 c 0.611,0.567 1.44,1.025 2.487,1.374 1.047,0.349 2.17,0.523 3.37,0.523 l 0,-5.693 c -1.287,0 -2.448,-0.169 -3.485,-0.507 -1.036,-0.339 -1.739,-0.813 -2.11,-1.424 l 0,-8.573 -7.362,0 0,15.706 z m 20.025,-16.197 c -2.05,0 -3.687,0.453 -4.908,1.358 -1.222,0.906 -1.832,2.231 -1.832,3.976 0,1.767 0.594,3.108 1.783,4.025 1.189,0.916 2.95,1.374 5.284,1.374 0.698,0 1.462,-0.082 2.291,-0.245 0.829,-0.164 1.516,-0.355 2.061,-0.573 l 0,0.262 c 0,0.567 -0.36,1.014 -1.079,1.341 -0.721,0.328 -1.669,0.491 -2.847,0.491 -1.898,0 -3.632,-0.392 -5.203,-1.178 l 0,4.679 c 0.72,0.35 1.669,0.633 2.847,0.851 1.178,0.218 2.476,0.327 3.893,0.327 3.142,0 5.552,-0.578 7.232,-1.734 1.68,-1.156 2.52,-2.792 2.52,-4.908 l 0,-9.555 -6.937,0 0,1.145 c -0.502,-0.458 -1.217,-0.845 -2.144,-1.161 -0.927,-0.317 -1.914,-0.475 -2.961,-0.475 m 2.356,4.058 c 0.458,0 0.9,0.087 1.325,0.262 0.426,0.174 0.758,0.392 0.998,0.654 l 0,1.047 c -0.72,0.415 -1.494,0.622 -2.323,0.622 -0.458,0 -0.818,-0.12 -1.08,-0.36 -0.262,-0.24 -0.392,-0.556 -0.392,-0.949 0,-0.371 0.125,-0.676 0.376,-0.916 0.251,-0.24 0.616,-0.36 1.096,-0.36 m 11.813,12.139 7.1,0 0,-1.308 c 0.655,0.567 1.418,1.009 2.291,1.325 0.872,0.316 1.788,0.474 2.748,0.474 2.291,0 3.965,-0.572 5.023,-1.717 1.058,-1.146 1.587,-2.733 1.587,-4.761 l 0,-9.719 -7.362,0 0,8.639 c 0,0.61 -0.126,1.074 -0.377,1.391 -0.25,0.316 -0.66,0.474 -1.227,0.474 -1.069,0 -1.876,-0.491 -2.421,-1.473 l 0,-9.031 -7.362,0 0,15.706 z m 29.743,-16.197 c -2.966,0 -5.295,0.715 -6.986,2.144 -1.69,1.429 -2.535,3.496 -2.535,6.2 0,2.705 0.845,4.772 2.535,6.201 1.691,1.429 4.02,2.143 6.986,2.143 1.353,0 2.662,-0.125 3.927,-0.376 1.265,-0.251 2.28,-0.605 3.043,-1.063 l 0,-5.628 c -0.654,0.479 -1.434,0.85 -2.339,1.112 -0.906,0.262 -1.827,0.393 -2.765,0.393 -1.135,0 -2.046,-0.24 -2.733,-0.72 -0.687,-0.48 -1.03,-1.167 -1.03,-2.062 0,-0.916 0.343,-1.608 1.03,-2.077 0.687,-0.469 1.598,-0.704 2.733,-0.704 0.916,0 1.837,0.136 2.765,0.409 0.927,0.273 1.761,0.66 2.502,1.162 l 0,-5.629 c -0.785,-0.458 -1.81,-0.823 -3.075,-1.096 -1.265,-0.272 -2.618,-0.409 -4.058,-0.409 m 18.357,0 c -3.228,0 -5.742,0.72 -7.542,2.16 -1.8,1.44 -2.699,3.48 -2.699,6.119 0,2.596 0.812,4.646 2.437,6.152 1.625,1.505 3.965,2.257 7.019,2.257 1.941,0 3.605,-0.36 4.99,-1.079 1.385,-0.72 2.432,-1.702 3.141,-2.945 0.709,-1.244 1.064,-2.64 1.064,-4.189 l 0,-2.127 -11.649,0 c 0.632,-1.134 2.061,-1.701 4.286,-1.701 1.025,0 2.1,0.082 3.223,0.245 1.124,0.164 2.078,0.398 2.863,0.704 l 0,-4.418 c -0.872,-0.349 -1.946,-0.632 -3.223,-0.85 -1.276,-0.219 -2.579,-0.328 -3.91,-0.328 m 1.473,10.373 c -0.262,1.091 -1.058,1.636 -2.389,1.636 -1.287,0 -2.062,-0.545 -2.323,-1.636 l 4.712,0 z"
         id="path1804"
         style="fill:#004f8e;fill-opacity:1;fill-rule:nonzero;stroke:none" /></g></g></svg>